<svg width="327" height="227" viewBox="0 0 327 227" fill="none" xmlns="http://www.w3.org/2000/svg">
<path d="M235.434 206.767H222.942V222.22H200.921V206.767H159.969V190.154L204.913 135.165H222.942V187.45H235.434V206.767ZM183.922 187.45H200.921V166.072L183.922 187.45Z" fill="#A8ACB7"/>
<path d="M83.3599 178.821C83.3599 149.974 96.1091 133.877 118.388 133.877C140.667 133.877 153.416 149.974 153.416 178.821C153.416 207.539 140.925 223.508 118.388 223.508C95.8515 223.508 83.3599 207.539 83.3599 178.821ZM106.154 178.821C106.154 194.919 110.275 203.676 118.388 203.676C126.244 203.676 130.622 194.919 130.622 178.821C130.622 162.595 126.244 153.709 118.388 153.709C110.532 153.709 106.154 162.724 106.154 178.821Z" fill="#A8ACB7"/>
<path d="M75.4651 206.767H62.9734V222.22H40.952V206.767H0V190.154L44.9442 135.165H62.9734V187.45H75.4651V206.767ZM23.9531 187.45H40.952V166.072L23.9531 187.45Z" fill="#A8ACB7"/>
<path d="M238.975 195.59L237.067 206.96L253.708 210.1L252.123 196.276L238.975 195.59Z" fill="white" stroke="#A8ACB7" stroke-width="2.89907" stroke-linejoin="round"/>
<path d="M227.925 193.832L258.529 194.556V129.738C258.529 122.809 217.116 118.799 217.116 118.799C217.116 118.799 233.805 156.608 234.003 157.192C234.201 157.777 227.925 193.832 227.925 193.832Z" fill="#A8ACB7" stroke="#A8ACB7" stroke-width="2.89907" stroke-linecap="round" stroke-linejoin="round"/>
<path d="M227.495 108.208L249.436 125.723L255.882 130.743L257.336 144.475L217.223 124.056L227.495 108.208Z" fill="white" stroke="#A8ACB7" stroke-width="2.89907" stroke-linejoin="round"/>
<path d="M203.544 66.6636L224.219 100.713L214.285 105.332L197.944 93.7747L203.544 66.6636Z" fill="white" stroke="#A8ACB7" stroke-width="2.89907" stroke-linejoin="round"/>
<path d="M227.495 99.1626L234.777 109.227L213.377 117.258L201.64 109.831L227.495 99.1626Z" fill="white" stroke="#A8ACB7" stroke-width="2.89907" stroke-linejoin="round"/>
<path d="M224.862 13.4561L224.63 19.2107C224.63 19.2107 229.099 21.385 230.017 26.4874L225.026 27.217C225.026 27.217 224.929 29.86 223.808 31.6912C224.581 32.7446 225.876 34.1603 224.292 35.0735C221.793 36.523 217.633 35.2233 217.633 35.2233L199.553 44.6936L185.318 29.3961L193.17 23.2163L193.271 14.9588C193.271 14.9588 209.888 8.55667 210.018 8.61465C210.149 8.67263 224.862 13.4561 224.862 13.4561Z" fill="white" stroke="#A8ACB7" stroke-width="2.89907" stroke-linejoin="round"/>
<path d="M232.525 16.0265L203.104 17.133L211.091 12.5525L229.317 12.2964C231.965 12.968 234.458 14.3837 232.525 16.0265Z" fill="white" stroke="#A8ACB7" stroke-width="2.89907" stroke-linejoin="round"/>
<path d="M219.465 29.8986L224.379 29.7295" stroke="#A8ACB7" stroke-width="2.89907" stroke-linecap="round" stroke-linejoin="round"/>
<path d="M220.353 21.965C221.154 21.965 221.803 21.316 221.803 20.5155C221.803 19.7149 221.154 19.0659 220.353 19.0659C219.553 19.0659 218.904 19.7149 218.904 20.5155C218.904 21.316 219.553 21.965 220.353 21.965Z" fill="#A8ACB7"/>
<path d="M209.028 33.4839L217.638 35.2233" stroke="#A8ACB7" stroke-width="2.89907" stroke-linecap="round" stroke-linejoin="round"/>
<path d="M155.26 136.531L211.748 105.332L203.892 52.0186L180.984 32.3242C149.181 45.5923 148.259 93.9536 155.26 136.531Z" fill="white" stroke="#A8ACB7" stroke-width="2.89907" stroke-linejoin="round"/>
<path d="M287.144 195.489L295.594 203.34L286.071 217.831L276.552 199.436L287.144 195.489Z" fill="white" stroke="#A8ACB7" stroke-width="2.89907" stroke-linejoin="round"/>
<path d="M290.212 196.272L273.876 203.094C273.876 203.094 226.244 171.513 219.639 158.864C213.034 146.214 194.692 140.735 177.965 139.43C161.237 138.126 157.381 135.691 157.381 135.691L202.534 111.3C202.534 111.3 248.214 135.232 257.327 151.147C266.439 167.063 290.212 196.272 290.212 196.272Z" fill="#A8ACB7" stroke="#A8ACB7" stroke-width="2.89907" stroke-linecap="round" stroke-linejoin="round"/>
<path d="M279.282 207.829L290.342 208.37C289.593 205.085 291.202 202.766 293.681 200.857C294.008 200.615 294.393 200.466 294.798 200.423C295.202 200.381 295.61 200.447 295.981 200.615C298.971 201.92 306.765 205.153 310.703 205.138C315.636 205.138 321.289 202.993 323.299 206.906C323.911 207.96 324.414 209.072 324.802 210.226C324.909 210.561 324.946 210.914 324.912 211.264C324.878 211.613 324.774 211.953 324.605 212.261C324.436 212.569 324.206 212.84 323.929 213.056C323.653 213.273 323.335 213.431 322.995 213.521L296.691 221.112L284.611 224.596C283.995 224.769 283.34 224.742 282.74 224.518C282.141 224.294 281.628 223.884 281.277 223.349C278.427 218.909 277.166 213.695 279.282 207.829Z" fill="white" stroke="#A8ACB7" stroke-width="2.89907" stroke-linecap="round" stroke-linejoin="round"/>
<path d="M280.92 221.469L323.937 209.056" stroke="#A8ACB7" stroke-width="2.89907" stroke-linecap="round" stroke-linejoin="round"/>
<path d="M236.323 203.534L246.648 207.24C247.088 203.915 249.431 202.19 252.446 201.098C252.83 200.963 253.243 200.931 253.643 201.008C254.043 201.084 254.415 201.265 254.722 201.533C257.104 203.63 263.376 208.936 267.12 210.057C271.822 211.467 277.939 211.086 278.475 215.371C278.688 216.548 278.775 217.743 278.736 218.937C278.688 219.658 278.36 220.332 277.824 220.817C277.287 221.301 276.583 221.557 275.861 221.532L248.194 221.116L235.487 220.923C234.858 220.921 234.247 220.709 233.753 220.32C233.258 219.931 232.908 219.389 232.757 218.778C231.617 213.758 232.254 208.472 236.323 203.534Z" fill="white" stroke="#A8ACB7" stroke-width="2.89907" stroke-linecap="round" stroke-linejoin="round"/>
<path d="M233.09 216.903L278.335 217.585" stroke="#A8ACB7" stroke-width="2.89907" stroke-linecap="round" stroke-linejoin="round"/>
<path d="M180.984 32.3245C181.192 32.2133 186.715 26.3862 186.715 26.3862L205.709 48.1872L200.49 57.2468C194.91 46.7232 189.227 37.2287 180.984 32.3245Z" fill="white" stroke="#A8ACB7" stroke-width="2.89907" stroke-linejoin="round"/>
<path d="M228.795 8.51807C222.303 5.85597 215.624 3.67735 208.811 2C202.632 2.64981 196.614 4.36981 191.025 7.08303C187.913 13.1131 189 18.9257 191.919 24.4774L211.082 12.5768L229.307 12.3207C230.631 10.9485 230.549 9.68253 228.795 8.51807Z" fill="white" stroke="#A8ACB7" stroke-width="2.89907" stroke-linejoin="round"/>
<path d="M201.326 20.0852C200.626 18.8724 199.36 18.3167 197.582 18.3554C195.625 18.6695 195.33 21.6265 195.895 23.7187C196.929 26.5742 198.964 28.4055 202.486 28.7196C202.8 28.7313 203.111 28.6475 203.376 28.4793C203.642 28.3111 203.85 28.0664 203.974 27.7774" fill="white"/>
<path d="M201.326 20.0852C200.626 18.8724 199.36 18.3167 197.582 18.3554C195.625 18.6695 195.33 21.6265 195.895 23.7187C196.929 26.5742 198.964 28.4055 202.486 28.7196C202.8 28.7313 203.111 28.6475 203.376 28.4793C203.642 28.3111 203.85 28.0664 203.974 27.7774" stroke="#A8ACB7" stroke-width="2.89907" stroke-linecap="round" stroke-linejoin="round"/>
<path d="M205.395 125.312L222.915 109.033L214.338 98.2344L195.369 120.277L205.395 125.312Z" fill="white" stroke="#A8ACB7" stroke-width="2.89907" stroke-linejoin="round"/>
<path d="M176.476 47.8878C171.335 48.7044 167.296 51.5213 164.706 56.9136C160.531 69.3023 164.131 81.4494 171.644 93.4902C179.587 102.411 189.134 109.76 199.79 115.156L213.386 99.8923C207.723 84.7785 202.003 68.7563 196.654 58.3873C192.813 50.9705 184.734 46.5736 176.476 47.8878Z" fill="white" stroke="#A8ACB7" stroke-width="2.89907" stroke-linejoin="round"/>
<path d="M210.149 121.161L220.735 111.058L234.458 123.732C234.82 124.06 239.821 127.114 242.894 128.08C245.967 129.047 251.316 133.154 251.084 138.179C250.852 143.204 247.412 140.822 247.412 140.822L242.85 142.556C241.038 143.243 238.932 142.479 238.222 140.861C237.284 138.72 235.042 134.84 233.134 134.067C229.722 132.666 214.725 126.713 210.149 121.161Z" fill="white" stroke="#A8ACB7" stroke-width="2.89907" stroke-linejoin="round"/>
<path d="M230.109 172.46L229.544 175.794C237.502 182.588 247.523 190.029 255.81 195.943L258.481 196.006H258.515C258.781 196.009 259.043 195.936 259.269 195.797C259.496 195.657 259.678 195.457 259.796 195.218C251.683 189.464 239.256 180.389 230.109 172.46Z" fill="white"/>
</svg>
