<svg width="24" height="24" viewBox="0 0 24 24" fill="none" xmlns="http://www.w3.org/2000/svg">
<path d="M9.74251 19.125C8.49751 19.125 7.24501 18.6525 6.29251 17.7C4.39501 15.795 4.39501 12.705 6.29251 10.8075C6.51001 10.59 6.87001 10.59 7.08751 10.8075C7.30501 11.025 7.30501 11.385 7.08751 11.6025C5.62501 13.065 5.62501 15.4425 7.08751 16.905C8.55001 18.3675 10.9275 18.3675 12.39 16.905C13.095 16.2 13.485 15.255 13.485 14.25C13.485 13.2525 13.095 12.3075 12.39 11.595C12.1725 11.3775 12.1725 11.0175 12.39 10.8C12.6075 10.5825 12.9675 10.5825 13.185 10.8C14.1075 11.7225 14.61 12.945 14.61 14.25C14.61 15.555 14.1 16.7775 13.185 17.7C12.24 18.6525 10.995 19.125 9.74251 19.125Z" fill="#A8ACB7"/>
<path d="M17.3025 13.62C17.16 13.62 17.0175 13.5675 16.905 13.455C16.6875 13.2375 16.6875 12.8775 16.905 12.66C18.4425 11.1225 18.4425 8.625 16.905 7.095C15.3675 5.5575 12.87 5.5575 11.34 7.095C10.5975 7.8375 10.185 8.8275 10.185 9.8775C10.185 10.9275 10.5975 11.9175 11.34 12.66C11.5575 12.8775 11.5575 13.2375 11.34 13.455C11.1225 13.6725 10.7625 13.6725 10.545 13.455C9.5925 12.5025 9.06 11.2275 9.06 9.8775C9.06 8.5275 9.585 7.2525 10.545 6.3C12.5175 4.3275 15.7275 4.3275 17.7075 6.3C19.68 8.2725 19.68 11.49 17.7075 13.4625C17.595 13.5675 17.445 13.62 17.3025 13.62Z" fill="#A8ACB7"/>
</svg>
