<svg width="209" height="128" viewBox="0 0 209 128" fill="none" xmlns="http://www.w3.org/2000/svg">
<path d="M173.552 105.072C173.552 106.736 170 112.32 169.568 113.04L168.816 112.928C169.088 111.84 169.76 107.952 170.064 106.4C170.384 104.864 171.056 103.808 172.288 103.808C173.168 103.808 173.552 104.56 173.552 105.072ZM170.016 115.136C170.016 115.952 169.232 116.512 168.464 116.512C167.76 116.512 167.088 116.032 167.088 115.28C167.088 114.464 167.872 113.888 168.64 113.888C169.344 113.888 170.016 114.384 170.016 115.136Z" fill="#A8ACB7"/>
<path d="M160.377 108.096L160.681 110.288L160.041 110.368C159.673 109.632 158.953 108.784 157.481 108.784C156.713 108.784 156.169 109.2 156.169 109.792C156.169 110.56 157.305 110.736 158.409 111.104C159.481 111.472 160.521 112.016 160.521 113.504C160.521 115.184 159.241 116.224 157.065 116.224C155.769 116.224 154.633 115.712 154.393 115.584L154.121 115.904H153.481L153.257 113.44L153.993 113.296C154.233 113.776 155.001 115.232 156.905 115.232C157.945 115.232 158.489 114.784 158.489 114.16C158.489 113.248 157.273 113.04 156.137 112.64C155.145 112.304 154.201 111.808 154.201 110.56C154.201 109.056 155.673 107.936 157.593 107.936C158.681 107.936 159.257 108.24 159.561 108.336L159.833 108.096H160.377Z" fill="#A8ACB7"/>
<path d="M152.622 109.776C152.622 109.968 152.59 110.192 152.542 110.432L151.534 114.368C151.486 114.528 151.438 114.704 151.438 114.88C151.438 115.264 152.03 115.28 152.302 115.328L152.142 116H149.118L150.51 110.64C150.542 110.48 150.574 110.32 150.574 110.192C150.574 109.568 150.11 109.296 149.486 109.296C149.134 109.296 148.254 109.632 147.726 110L146.67 114.368C146.638 114.544 146.574 114.704 146.574 114.88C146.574 115.264 147.182 115.28 147.47 115.328L147.278 116H143.246L143.406 115.328C144.206 115.216 144.43 115.28 144.622 114.48L145.582 110.672C145.614 110.544 145.63 110.432 145.63 110.304C145.63 109.776 145.166 109.776 144.766 109.792L144.926 109.136C145.342 109.04 145.806 108.88 146.238 108.704C146.734 108.496 147.198 108.24 147.582 107.968H148.286L148.062 108.8C148.526 108.48 149.454 107.984 150.574 107.984C151.694 107.984 152.622 108.576 152.622 109.776Z" fill="#A8ACB7"/>
<path d="M143.896 111.152C143.88 111.504 143.8 111.76 143.64 111.76H138.024C137.912 112.144 137.848 112.512 137.832 112.848C137.768 114.384 138.6 115.104 139.576 115.104C140.568 115.104 141.704 114.16 142.2 113.344L143.224 113.76C142.68 114.8 141.144 116.176 139.032 116.176C136.904 116.176 135.464 114.832 135.528 112.928C135.64 110.208 137.976 107.968 140.664 107.968C143.176 107.968 143.96 109.632 143.896 111.152ZM141.8 110.272C141.832 109.392 141.336 108.96 140.616 108.96C139.768 108.96 139 109.744 138.488 110.688H141.464C141.624 110.688 141.784 110.496 141.8 110.272Z" fill="#A8ACB7"/>
<path d="M135.729 105.376C135.729 105.984 135.121 106.48 134.353 106.48C133.601 106.48 132.977 105.984 132.977 105.376C132.977 104.768 133.601 104.272 134.353 104.272C135.121 104.272 135.729 104.768 135.729 105.376ZM134.193 108.128H134.897L133.329 114.368C133.297 114.528 133.233 114.704 133.233 114.88C133.233 115.264 133.841 115.28 134.129 115.328L133.937 116H129.905L130.065 115.328C130.865 115.216 131.089 115.296 131.281 114.48L132.193 110.832C132.225 110.704 132.241 110.592 132.241 110.464C132.241 109.936 131.777 109.936 131.377 109.952L131.537 109.296C131.953 109.2 132.417 109.04 132.849 108.864C133.345 108.656 133.809 108.4 134.193 108.128Z" fill="#A8ACB7"/>
<path d="M130.407 103.504H131.111L128.391 114.368C128.359 114.528 128.295 114.704 128.295 114.88C128.295 115.264 128.903 115.28 129.191 115.328L128.999 116H124.967L125.127 115.328C125.927 115.216 126.151 115.28 126.343 114.48L128.407 106.208C128.439 106.096 128.455 105.968 128.455 105.84C128.455 105.312 127.991 105.312 127.591 105.328L127.751 104.672C128.167 104.576 128.615 104.432 129.063 104.24C129.559 104.032 130.023 103.776 130.407 103.504Z" fill="#A8ACB7"/>
<path d="M120.146 111.152C120.13 111.504 120.05 111.76 119.89 111.76H114.274C114.162 112.144 114.098 112.512 114.082 112.848C114.018 114.384 114.85 115.104 115.826 115.104C116.818 115.104 117.954 114.16 118.45 113.344L119.474 113.76C118.93 114.8 117.394 116.176 115.282 116.176C113.154 116.176 111.714 114.832 111.778 112.928C111.89 110.208 114.226 107.968 116.914 107.968C119.426 107.968 120.21 109.632 120.146 111.152ZM118.05 110.272C118.082 109.392 117.586 108.96 116.866 108.96C116.018 108.96 115.25 109.744 114.738 110.688H117.714C117.874 110.688 118.034 110.496 118.05 110.272Z" fill="#A8ACB7"/>
<path d="M111.689 103.504H112.393L109.673 114.368C109.641 114.528 109.577 114.704 109.577 114.88C109.577 115.264 110.185 115.28 110.473 115.328L110.281 116H106.249L106.409 115.328C107.209 115.216 107.433 115.28 107.625 114.48L109.689 106.208C109.721 106.096 109.737 105.968 109.737 105.84C109.737 105.312 109.273 105.312 108.873 105.328L109.033 104.672C109.449 104.576 109.897 104.432 110.345 104.24C110.841 104.032 111.305 103.776 111.689 103.504Z" fill="#A8ACB7"/>
<path d="M96.2533 108.128H101.965L101.917 108.864L95.8053 115.232H96.8452C98.1412 115.232 99.0372 114.544 99.7412 113.872L100.333 113.296L100.717 113.616L99.1172 116H93.2292L93.3252 115.136L99.3893 108.864H98.7172C97.6452 108.864 96.3812 109.44 95.6772 110.144L95.3412 110.48L95.0212 110.24L96.2533 108.128Z" fill="#A8ACB7"/>
<path d="M93.6933 111.152C93.6773 111.504 93.5973 111.76 93.4373 111.76H87.8213C87.7093 112.144 87.6453 112.512 87.6293 112.848C87.5653 114.384 88.3973 115.104 89.3733 115.104C90.3653 115.104 91.5013 114.16 91.9973 113.344L93.0213 113.76C92.4773 114.8 90.9413 116.176 88.8293 116.176C86.7013 116.176 85.2613 114.832 85.3253 112.928C85.4373 110.208 87.7733 107.968 90.4613 107.968C92.9733 107.968 93.7573 109.632 93.6933 111.152ZM91.5973 110.272C91.6293 109.392 91.1333 108.96 90.4133 108.96C89.5653 108.96 88.7973 109.744 88.2853 110.688H91.2613C91.4213 110.688 91.5813 110.496 91.5973 110.272Z" fill="#A8ACB7"/>
<path d="M86.2027 107.008C86.2027 107.568 85.8347 107.904 85.3067 107.904C84.7947 107.904 84.7627 107.52 84.2987 107.52C83.9467 107.52 83.7387 107.872 83.5947 108.16C84.4427 108.512 84.8747 109.2 84.8747 109.904C84.8747 111.92 83.3547 113.888 80.3947 113.888C79.8507 113.888 79.3067 113.808 79.3067 114.176C79.3067 114.704 80.4427 114.56 81.6107 114.64C82.7787 114.72 84.4267 114.816 84.4267 116.464C84.4267 118.304 81.7867 119.232 79.5627 119.232C77.9307 119.232 76.5227 118.72 76.5227 117.696C76.5227 116.896 77.1627 116.32 77.4987 116.16C77.2587 116.048 76.9067 115.68 76.9067 115.104C76.9067 114.192 77.9307 113.664 78.6027 113.376C78.3627 113.072 78.0427 112.592 78.0427 111.824C78.0427 109.936 79.5307 107.92 82.2827 107.92C82.5867 107.92 82.8747 107.952 83.1147 108.016C83.6267 107.136 84.2027 106.16 85.1787 106.16C85.7707 106.16 86.2027 106.512 86.2027 107.008ZM82.9547 109.92C82.9547 109.296 82.6347 108.848 81.8987 108.848C80.7307 108.848 79.9467 110.448 79.9467 111.888C79.9467 112.48 80.3307 112.96 80.8587 112.96C82.1067 112.96 82.9547 111.36 82.9547 109.92ZM82.5707 117.12C82.5707 116.4 79.6907 116.4 78.8907 116.4C78.6827 116.4 78.1547 116.752 78.1547 117.248C78.1547 117.888 78.6987 118.208 80.0907 118.208C81.1627 118.208 82.5707 117.872 82.5707 117.12Z" fill="#A8ACB7"/>
<path d="M76.4417 110.08L75.4817 113.872C75.1617 115.136 75.9137 115.184 76.3297 114.928L76.0897 115.824C75.6577 116.08 75.0657 116.208 74.5377 116.208C73.5457 116.208 73.2897 115.76 73.2257 115.52C72.9857 115.68 72.2657 116.192 70.9857 116.192C69.5137 116.192 68.5217 115.6 68.5217 114.352C68.5217 112.256 70.3777 111.536 73.4337 110.864L74.3137 110.672L74.4577 110.08C74.6817 109.216 74.3297 108.832 73.7857 108.832C73.3057 108.832 72.9697 109.168 72.6497 109.552C72.2177 110.048 71.8337 110.624 71.1937 110.624C70.6017 110.624 70.3617 110.336 70.3617 109.952C70.3617 109.008 71.9137 107.936 73.8177 107.936C75.7217 107.936 76.7777 108.736 76.4417 110.08ZM73.7217 113.024L74.0257 111.84L73.6897 111.92C71.8177 112.384 70.5537 112.88 70.5537 113.888C70.5537 114.544 70.9537 114.976 71.8177 114.976C72.8897 114.976 73.3857 114.336 73.7217 113.024Z" fill="#A8ACB7"/>
<path d="M67.9635 108.128H69.1955L68.9395 109.12H67.1475L65.8675 113.92C65.8195 114.096 65.8035 114.256 65.8035 114.4C65.8035 114.88 66.0755 115.056 66.4115 115.056C66.8435 115.056 67.2115 114.72 67.2115 114.72L67.4675 115.04C67.0675 115.552 66.2995 116.208 65.3395 116.208C64.3635 116.208 63.7555 115.792 63.7555 114.848C63.7555 114.64 63.7875 114.4 63.8515 114.144L65.1635 109.04H64.2195L64.4275 108.16C64.9875 108.064 65.6435 107.68 66.2035 107.152C66.6995 106.688 67.1155 106.112 67.3875 105.504H68.0435L67.5795 107.376C67.5475 107.52 67.5155 107.632 67.5155 107.744C67.5155 107.984 67.6435 108.128 67.9635 108.128Z" fill="#A8ACB7"/>
<path d="M63.5213 108.912C63.5213 109.472 63.1373 110.032 62.4173 110.032C61.7453 110.032 61.5693 109.632 60.8173 109.632C60.0653 109.632 59.6973 110.144 59.3773 111.424L58.6413 114.336C58.5933 114.56 58.5453 114.72 58.5453 114.848C58.5453 115.136 58.7693 115.2 59.4413 115.312L59.2653 116H55.2173L55.3773 115.328C56.1773 115.216 56.4013 115.28 56.5933 114.48L57.5213 110.832C57.5373 110.704 57.5693 110.592 57.5693 110.464C57.5693 110.016 57.2333 109.952 56.8813 109.952C56.8173 109.952 56.7533 109.952 56.6893 109.952L56.8493 109.296C57.2813 109.2 57.7293 109.04 58.1613 108.864C58.6573 108.656 59.1373 108.4 59.5053 108.128H60.2413L60.0333 108.896C60.5933 108.416 61.4573 107.824 62.4013 107.824C63.1533 107.824 63.5213 108.368 63.5213 108.912Z" fill="#A8ACB7"/>
<path d="M54.8324 110.08L53.8724 113.872C53.5524 115.136 54.3044 115.184 54.7204 114.928L54.4804 115.824C54.0484 116.08 53.4564 116.208 52.9284 116.208C51.9364 116.208 51.6804 115.76 51.6164 115.52C51.3764 115.68 50.6564 116.192 49.3764 116.192C47.9044 116.192 46.9124 115.6 46.9124 114.352C46.9124 112.256 48.7684 111.536 51.8244 110.864L52.7044 110.672L52.8484 110.08C53.0724 109.216 52.7204 108.832 52.1764 108.832C51.6964 108.832 51.3604 109.168 51.0404 109.552C50.6084 110.048 50.2244 110.624 49.5844 110.624C48.9924 110.624 48.7524 110.336 48.7524 109.952C48.7524 109.008 50.3044 107.936 52.2084 107.936C54.1124 107.936 55.1684 108.736 54.8324 110.08ZM52.1124 113.024L52.4164 111.84L52.0804 111.92C50.2084 112.384 48.9444 112.88 48.9444 113.888C48.9444 114.544 49.3444 114.976 50.2084 114.976C51.2804 114.976 51.7764 114.336 52.1124 113.024Z" fill="#A8ACB7"/>
<path d="M46.9214 110.576C46.9214 113.264 44.5694 116.16 42.0094 116.16C41.2254 116.16 40.6334 116.016 40.2334 115.84L39.8334 117.456C39.8014 117.632 39.7374 117.808 39.7374 117.968C39.7374 118.352 40.3454 118.368 40.6334 118.416L40.4414 119.088H36.4094L36.5694 118.416C37.3694 118.32 37.5934 118.384 37.7854 117.568L39.4654 110.832C39.4974 110.704 39.5134 110.592 39.5134 110.464C39.5134 110.016 39.1774 109.952 38.8414 109.952C38.7614 109.952 38.6974 109.952 38.6334 109.952L38.8094 109.296C39.2254 109.2 39.6734 109.04 40.1054 108.864C40.6014 108.656 41.0814 108.4 41.4494 108.128H42.1694L42.0414 108.608C42.6974 108.24 43.6094 107.92 44.5374 107.92C46.2334 107.92 46.9214 109.296 46.9214 110.576ZM44.7934 110.528C44.7934 109.648 44.3294 109.2 43.4334 109.2C42.8414 109.2 42.2494 109.472 41.7054 109.952L40.6974 114.016C40.6654 114.128 40.6494 114.24 40.6494 114.336C40.6494 114.928 41.1934 115.136 41.9774 115.136C43.6894 115.136 44.7934 112.112 44.7934 110.528Z" fill="#A8ACB7"/>
<path d="M165.732 101.216C165.732 102.64 163.652 104.992 163.14 105.408L162.5 104.944C163.06 104.352 163.7 103.376 163.7 102.832C163.7 102.288 163.012 102.272 163.012 101.392C163.012 100.736 163.572 99.9839 164.516 99.9839C165.284 99.9839 165.732 100.656 165.732 101.216Z" fill="#A8ACB7"/>
<path d="M161.526 94.1279H162.758L162.502 95.1199H160.71L159.43 99.9199C159.382 100.096 159.366 100.256 159.366 100.4C159.366 100.88 159.638 101.056 159.974 101.056C160.406 101.056 160.774 100.72 160.774 100.72L161.03 101.04C160.63 101.552 159.862 102.208 158.902 102.208C157.926 102.208 157.318 101.792 157.318 100.848C157.318 100.64 157.35 100.4 157.414 100.144L158.726 95.0399H157.782L157.99 94.1599C158.55 94.0639 159.206 93.6799 159.766 93.1519C160.262 92.6879 160.678 92.1119 160.95 91.5039H161.606L161.142 93.3759C161.11 93.5199 161.078 93.6319 161.078 93.7439C161.078 93.9839 161.206 94.1279 161.526 94.1279Z" fill="#A8ACB7"/>
<path d="M156.091 95.7763C156.091 95.9683 156.059 96.1923 156.011 96.4323L155.003 100.368C154.955 100.528 154.907 100.704 154.907 100.88C154.907 101.264 155.499 101.28 155.771 101.328L155.611 102H152.587L153.979 96.6403C154.011 96.4803 154.043 96.3203 154.043 96.1923C154.043 95.5683 153.579 95.2963 152.955 95.2963C152.603 95.2963 151.723 95.6323 151.195 96.0003L150.139 100.368C150.107 100.544 150.043 100.704 150.043 100.88C150.043 101.264 150.651 101.28 150.939 101.328L150.747 102H146.715L146.875 101.328C147.675 101.216 147.899 101.28 148.091 100.48L149.051 96.6723C149.083 96.5443 149.099 96.4323 149.099 96.3043C149.099 95.7763 148.635 95.7763 148.235 95.7923L148.395 95.1363C148.811 95.0403 149.275 94.8803 149.707 94.7043C150.203 94.4963 150.667 94.2403 151.051 93.9683H151.755L151.531 94.8003C151.995 94.4803 152.923 93.9843 154.043 93.9843C155.163 93.9843 156.091 94.5763 156.091 95.7763Z" fill="#A8ACB7"/>
<path d="M147.365 97.1523C147.349 97.5043 147.269 97.7603 147.109 97.7603H141.493C141.381 98.1443 141.317 98.5123 141.301 98.8483C141.237 100.384 142.069 101.104 143.045 101.104C144.037 101.104 145.173 100.16 145.669 99.3443L146.693 99.7603C146.149 100.8 144.613 102.176 142.501 102.176C140.373 102.176 138.933 100.832 138.997 98.9283C139.109 96.2083 141.445 93.9683 144.133 93.9683C146.645 93.9683 147.429 95.6323 147.365 97.1523ZM145.269 96.2723C145.301 95.3923 144.805 94.9603 144.085 94.9603C143.237 94.9603 142.469 95.7443 141.957 96.6883H144.933C145.093 96.6883 145.253 96.4963 145.269 96.2723Z" fill="#A8ACB7"/>
<path d="M138.241 95.7763C138.241 95.9683 138.209 96.1923 138.145 96.4323L137.185 100.368C137.153 100.528 137.105 100.704 137.105 100.88C137.105 101.264 137.681 101.28 137.969 101.328L137.793 102H134.721L136.097 96.6403C136.145 96.4803 136.161 96.3203 136.161 96.1923C136.161 95.5683 135.729 95.2963 135.105 95.2963C134.801 95.2963 134.113 95.5363 133.585 95.8563C133.585 96.0323 133.553 96.2243 133.505 96.4323L132.545 100.368C132.497 100.544 132.465 100.704 132.465 100.88C132.465 101.264 133.073 101.28 133.345 101.328L133.169 102H129.137L129.297 101.328C130.097 101.216 130.321 101.296 130.513 100.48L131.457 96.6403C131.489 96.4803 131.521 96.3203 131.521 96.1923C131.521 95.5683 131.217 95.3123 130.785 95.3123C129.921 95.3123 129.345 95.6963 128.961 96.0003L127.905 100.368C127.873 100.544 127.809 100.704 127.809 100.88C127.809 101.264 128.417 101.28 128.705 101.328L128.513 102H124.481L124.641 101.328C125.441 101.216 125.665 101.28 125.857 100.48L126.817 96.6723C126.849 96.5443 126.865 96.4323 126.865 96.3043C126.865 95.7763 126.401 95.7763 126.001 95.7923L126.161 95.1363C126.577 95.0403 127.041 94.8803 127.473 94.7043C127.969 94.4963 128.433 94.2403 128.817 93.9683H129.521L129.297 94.8003C129.681 94.5763 130.321 93.9843 131.537 93.9843C132.337 93.9843 133.057 94.3043 133.393 94.9123C133.921 94.5443 135.137 93.9843 136.193 93.9843C137.297 93.9843 138.241 94.5763 138.241 95.7763Z" fill="#A8ACB7"/>
<path d="M124.916 97.1683C124.916 99.2963 122.868 102.176 119.748 102.176C117.204 102.176 116.34 100.96 116.34 99.2803C116.34 96.4963 118.58 93.9683 121.588 93.9683C123.556 93.9683 124.916 95.1043 124.916 97.1683ZM122.868 96.5763C122.868 95.7603 122.388 95.0243 121.396 95.0243C119.652 95.0243 118.436 97.6003 118.436 99.8563C118.436 100.752 118.948 101.232 119.78 101.232C121.844 101.232 122.868 98.4003 122.868 96.5763Z" fill="#A8ACB7"/>
<path d="M115.491 95.7763C115.491 95.9683 115.459 96.1923 115.395 96.4323L114.435 100.368C114.403 100.528 114.355 100.704 114.355 100.88C114.355 101.264 114.931 101.28 115.219 101.328L115.043 102H111.971L113.347 96.6403C113.395 96.4803 113.411 96.3203 113.411 96.1923C113.411 95.5683 112.979 95.2963 112.355 95.2963C112.051 95.2963 111.363 95.5363 110.835 95.8563C110.835 96.0323 110.803 96.2243 110.755 96.4323L109.795 100.368C109.747 100.544 109.715 100.704 109.715 100.88C109.715 101.264 110.323 101.28 110.595 101.328L110.419 102H106.387L106.547 101.328C107.347 101.216 107.571 101.296 107.763 100.48L108.707 96.6403C108.739 96.4803 108.771 96.3203 108.771 96.1923C108.771 95.5683 108.467 95.3123 108.035 95.3123C107.171 95.3123 106.595 95.6963 106.211 96.0003L105.155 100.368C105.123 100.544 105.059 100.704 105.059 100.88C105.059 101.264 105.667 101.28 105.955 101.328L105.763 102H101.731L101.891 101.328C102.691 101.216 102.915 101.28 103.107 100.48L104.067 96.6723C104.099 96.5443 104.115 96.4323 104.115 96.3043C104.115 95.7763 103.651 95.7763 103.251 95.7923L103.411 95.1363C103.827 95.0403 104.291 94.8803 104.723 94.7043C105.219 94.4963 105.683 94.2403 106.067 93.9683H106.771L106.547 94.8003C106.931 94.5763 107.571 93.9843 108.787 93.9843C109.587 93.9843 110.307 94.3043 110.643 94.9123C111.171 94.5443 112.387 93.9843 113.443 93.9843C114.547 93.9843 115.491 94.5763 115.491 95.7763Z" fill="#A8ACB7"/>
<path d="M97.0058 97.1523C96.9898 97.5043 96.9098 97.7603 96.7498 97.7603H91.1338C91.0218 98.1443 90.9578 98.5123 90.9418 98.8483C90.8778 100.384 91.7098 101.104 92.6858 101.104C93.6778 101.104 94.8138 100.16 95.3098 99.3443L96.3338 99.7603C95.7898 100.8 94.2538 102.176 92.1418 102.176C90.0138 102.176 88.5738 100.832 88.6378 98.9283C88.7498 96.2083 91.0858 93.9683 93.7738 93.9683C96.2858 93.9683 97.0698 95.6323 97.0058 97.1523ZM94.9098 96.2723C94.9418 95.3923 94.4458 94.9603 93.7258 94.9603C92.8778 94.9603 92.1098 95.7443 91.5978 96.6883H94.5738C94.7338 96.6883 94.8938 96.4963 94.9098 96.2723Z" fill="#A8ACB7"/>
<path d="M88.5479 89.5039H89.2519L86.5319 100.368C86.4999 100.528 86.4359 100.704 86.4359 100.88C86.4359 101.264 87.0439 101.28 87.3319 101.328L87.1399 102H83.1079L83.2679 101.328C84.0679 101.216 84.2919 101.28 84.4839 100.48L86.5479 92.2079C86.5799 92.0959 86.5959 91.9679 86.5959 91.8399C86.5959 91.3119 86.1319 91.3119 85.7319 91.3279L85.8919 90.6719C86.3079 90.5759 86.7559 90.4319 87.2039 90.2399C87.6999 90.0319 88.1639 89.7759 88.5479 89.5039Z" fill="#A8ACB7"/>
<path d="M78.9432 94.9122C78.9432 95.4722 78.5592 96.0322 77.8392 96.0322C77.1672 96.0322 76.9912 95.6322 76.2392 95.6322C75.4872 95.6322 75.1192 96.1442 74.7992 97.4242L74.0632 100.336C74.0152 100.56 73.9672 100.72 73.9672 100.848C73.9672 101.136 74.1912 101.2 74.8632 101.312L74.6872 102H70.6392L70.7992 101.328C71.5992 101.216 71.8232 101.28 72.0152 100.48L72.9432 96.8322C72.9592 96.7042 72.9912 96.5922 72.9912 96.4642C72.9912 96.0162 72.6552 95.9522 72.3032 95.9522C72.2392 95.9522 72.1752 95.9522 72.1112 95.9522L72.2712 95.2962C72.7032 95.2002 73.1512 95.0402 73.5832 94.8642C74.0792 94.6562 74.5592 94.4002 74.9272 94.1282H75.6632L75.4552 94.8962C76.0152 94.4162 76.8792 93.8242 77.8232 93.8242C78.5752 93.8242 78.9432 94.3682 78.9432 94.9122Z" fill="#A8ACB7"/>
<path d="M70.0102 94.1279H70.7622L69.1942 100.432C69.1622 100.576 69.1462 100.688 69.1462 100.784C69.1462 101.232 69.4662 101.248 69.8022 101.28L69.6102 102H66.7462L66.8422 101.584C66.5382 101.776 65.7062 102.192 64.7142 102.192C63.4182 102.192 62.5062 101.664 62.5062 100.512C62.5062 100.304 62.5382 100.08 62.6022 99.8239L63.4342 96.5279C63.4502 96.4799 63.4502 96.4319 63.4502 96.3839C63.4502 95.9199 62.7942 95.9359 62.5382 95.9199L62.6822 95.2959C63.0982 95.2159 63.5782 95.0559 64.0262 94.8479C64.5062 94.6399 64.9542 94.3839 65.3382 94.1279H66.0582C66.0582 94.1279 64.9062 98.3359 64.6342 99.5519C64.5702 99.8239 64.5382 100.048 64.5382 100.24C64.5382 100.928 64.9062 101.168 65.5142 101.168C66.2982 101.168 66.9382 100.688 67.1782 100.4L68.1222 96.5599C68.1382 96.4959 68.1382 96.4479 68.1382 96.3999C68.1382 95.9359 67.5782 95.9199 67.2582 95.9199L67.3862 95.2959C67.8342 95.1999 68.3462 95.0239 68.8262 94.8159C69.2902 94.6079 69.7222 94.3519 70.0102 94.1279Z" fill="#A8ACB7"/>
<path d="M61.8537 97.1683C61.8537 99.2963 59.8057 102.176 56.6857 102.176C54.1417 102.176 53.2777 100.96 53.2777 99.2803C53.2777 96.4963 55.5177 93.9683 58.5257 93.9683C60.4937 93.9683 61.8537 95.1043 61.8537 97.1683ZM59.8057 96.5763C59.8057 95.7603 59.3257 95.0243 58.3337 95.0243C56.5897 95.0243 55.3737 97.6003 55.3737 99.8563C55.3737 100.752 55.8857 101.232 56.7177 101.232C58.7817 101.232 59.8057 98.4003 59.8057 96.5763Z" fill="#A8ACB7"/>
<path d="M53.0308 96.5759C53.0308 99.2639 50.6788 102.16 48.1188 102.16C47.3348 102.16 46.7428 102.016 46.3428 101.84L45.9428 103.456C45.9108 103.632 45.8468 103.808 45.8468 103.968C45.8468 104.352 46.4548 104.368 46.7428 104.416L46.5508 105.088H42.5188L42.6788 104.416C43.4788 104.32 43.7028 104.384 43.8948 103.568L45.5748 96.8319C45.6068 96.7039 45.6228 96.5919 45.6228 96.4639C45.6228 96.0159 45.2868 95.9519 44.9508 95.9519C44.8708 95.9519 44.8068 95.9519 44.7428 95.9519L44.9188 95.2959C45.3348 95.1999 45.7828 95.0399 46.2148 94.8639C46.7108 94.6559 47.1908 94.3999 47.5588 94.1279H48.2788L48.1508 94.6079C48.8068 94.2399 49.7188 93.9199 50.6468 93.9199C52.3428 93.9199 53.0308 95.2959 53.0308 96.5759ZM50.9028 96.5279C50.9028 95.6479 50.4388 95.1999 49.5428 95.1999C48.9508 95.1999 48.3588 95.4719 47.8148 95.9519L46.8068 100.016C46.7748 100.128 46.7588 100.24 46.7588 100.336C46.7588 100.928 47.3028 101.136 48.0868 101.136C49.7988 101.136 50.9028 98.1119 50.9028 96.5279Z" fill="#A8ACB7"/>
<path d="M176.135 80.096L176.439 82.288L175.799 82.368C175.431 81.632 174.711 80.784 173.239 80.784C172.471 80.784 171.927 81.2 171.927 81.792C171.927 82.56 173.063 82.736 174.167 83.104C175.239 83.472 176.279 84.016 176.279 85.504C176.279 87.184 174.999 88.224 172.823 88.224C171.527 88.224 170.391 87.712 170.151 87.584L169.879 87.904H169.239L169.015 85.44L169.751 85.296C169.991 85.776 170.759 87.232 172.663 87.232C173.703 87.232 174.247 86.784 174.247 86.16C174.247 85.248 173.031 85.04 171.895 84.64C170.903 84.304 169.959 83.808 169.959 82.56C169.959 81.056 171.431 79.936 173.351 79.936C174.439 79.936 175.015 80.24 175.319 80.336L175.591 80.096H176.135Z" fill="#A8ACB7"/>
<path d="M168.409 80.1279H169.641L169.385 81.1199H167.593L166.313 85.9199C166.265 86.0959 166.249 86.2559 166.249 86.3999C166.249 86.8799 166.521 87.0559 166.857 87.0559C167.289 87.0559 167.657 86.7199 167.657 86.7199L167.913 87.0399C167.513 87.5519 166.745 88.2079 165.785 88.2079C164.809 88.2079 164.201 87.7919 164.201 86.8479C164.201 86.6399 164.233 86.3999 164.297 86.1439L165.609 81.0399H164.665L164.873 80.1599C165.433 80.0639 166.089 79.6799 166.649 79.1519C167.145 78.6879 167.561 78.1119 167.833 77.5039H168.489L168.025 79.3759C167.993 79.5199 167.961 79.6319 167.961 79.7439C167.961 79.9839 168.089 80.1279 168.409 80.1279Z" fill="#A8ACB7"/>
<path d="M162.974 81.7763C162.974 81.9683 162.942 82.1923 162.894 82.4323L161.886 86.3683C161.838 86.5283 161.79 86.7043 161.79 86.8803C161.79 87.2643 162.382 87.2803 162.654 87.3283L162.494 88.0003H159.47L160.862 82.6403C160.894 82.4803 160.926 82.3203 160.926 82.1923C160.926 81.5683 160.462 81.2963 159.838 81.2963C159.486 81.2963 158.606 81.6323 158.078 82.0003L157.022 86.3683C156.99 86.5443 156.926 86.7043 156.926 86.8803C156.926 87.2643 157.534 87.2803 157.822 87.3283L157.63 88.0003H153.598L153.758 87.3283C154.558 87.2163 154.782 87.2803 154.974 86.4803L155.934 82.6723C155.966 82.5443 155.982 82.4323 155.982 82.3043C155.982 81.7763 155.518 81.7763 155.118 81.7923L155.278 81.1363C155.694 81.0403 156.158 80.8803 156.59 80.7043C157.086 80.4963 157.55 80.2403 157.934 79.9683H158.638L158.414 80.8003C158.878 80.4803 159.806 79.9843 160.926 79.9843C162.046 79.9843 162.974 80.5763 162.974 81.7763Z" fill="#A8ACB7"/>
<path d="M153.309 82.08L152.349 85.872C152.029 87.136 152.781 87.184 153.197 86.928L152.957 87.824C152.525 88.08 151.933 88.208 151.405 88.208C150.413 88.208 150.157 87.76 150.093 87.52C149.853 87.68 149.133 88.192 147.853 88.192C146.381 88.192 145.389 87.6 145.389 86.352C145.389 84.256 147.245 83.536 150.301 82.864L151.181 82.672L151.325 82.08C151.549 81.216 151.197 80.832 150.653 80.832C150.173 80.832 149.837 81.168 149.517 81.552C149.085 82.048 148.701 82.624 148.061 82.624C147.469 82.624 147.229 82.336 147.229 81.952C147.229 81.008 148.781 79.936 150.685 79.936C152.589 79.936 153.645 80.736 153.309 82.08ZM150.589 85.024L150.893 83.84L150.557 83.92C148.685 84.384 147.421 84.88 147.421 85.888C147.421 86.544 147.821 86.976 148.685 86.976C149.757 86.976 150.253 86.336 150.589 85.024Z" fill="#A8ACB7"/>
<path d="M145.398 82.5759C145.398 85.2639 143.046 88.1599 140.486 88.1599C139.702 88.1599 139.11 88.0159 138.71 87.8399L138.31 89.4559C138.278 89.6319 138.214 89.8079 138.214 89.9679C138.214 90.3519 138.822 90.3679 139.11 90.4159L138.918 91.0879H134.886L135.046 90.4159C135.846 90.3199 136.07 90.3839 136.262 89.5679L137.942 82.8319C137.974 82.7039 137.99 82.5919 137.99 82.4639C137.99 82.0159 137.654 81.9519 137.318 81.9519C137.238 81.9519 137.174 81.9519 137.11 81.9519L137.286 81.2959C137.702 81.1999 138.15 81.0399 138.582 80.8639C139.078 80.6559 139.558 80.3999 139.926 80.1279H140.646L140.518 80.6079C141.174 80.2399 142.086 79.9199 143.014 79.9199C144.71 79.9199 145.398 81.2959 145.398 82.5759ZM143.27 82.5279C143.27 81.6479 142.806 81.1999 141.91 81.1999C141.318 81.1999 140.726 81.4719 140.182 81.9519L139.174 86.0159C139.142 86.1279 139.126 86.2399 139.126 86.3359C139.126 86.9279 139.67 87.1359 140.454 87.1359C142.166 87.1359 143.27 84.1119 143.27 82.5279Z" fill="#A8ACB7"/>
<path d="M136.831 77.376C136.831 77.984 136.223 78.48 135.455 78.48C134.703 78.48 134.079 77.984 134.079 77.376C134.079 76.768 134.703 76.272 135.455 76.272C136.223 76.272 136.831 76.768 136.831 77.376ZM135.295 80.128H135.999L134.431 86.368C134.399 86.528 134.335 86.704 134.335 86.88C134.335 87.264 134.943 87.28 135.231 87.328L135.039 88H131.007L131.167 87.328C131.967 87.216 132.191 87.296 132.383 86.48L133.295 82.832C133.327 82.704 133.343 82.592 133.343 82.464C133.343 81.936 132.879 81.936 132.479 81.952L132.639 81.296C133.055 81.2 133.519 81.04 133.951 80.864C134.447 80.656 134.911 80.4 135.295 80.128Z" fill="#A8ACB7"/>
<path d="M131.37 81.7123C131.37 82.3523 130.794 82.8643 130.154 82.8643C129.498 82.8643 129.066 82.4643 128.986 82.0003C128.89 81.5363 128.794 81.0563 128.234 81.0563C126.57 81.0563 125.45 83.7763 125.45 85.1683C125.45 86.2243 125.898 87.0243 127.034 87.0243C127.978 87.0243 129.162 86.2563 129.738 85.5203L130.522 86.0163C129.738 87.3763 128.058 88.1763 126.49 88.1763C124.57 88.1763 123.178 87.2163 123.178 85.2963C123.178 82.6563 125.642 79.9683 128.714 79.9683C130.522 79.9683 131.37 80.8003 131.37 81.7123Z" fill="#A8ACB7"/>
<path d="M123.456 77.376C123.456 77.984 122.848 78.48 122.08 78.48C121.328 78.48 120.704 77.984 120.704 77.376C120.704 76.768 121.328 76.272 122.08 76.272C122.848 76.272 123.456 76.768 123.456 77.376ZM121.92 80.128H122.624L121.056 86.368C121.024 86.528 120.96 86.704 120.96 86.88C120.96 87.264 121.568 87.28 121.856 87.328L121.664 88H117.632L117.792 87.328C118.592 87.216 118.816 87.296 119.008 86.48L119.92 82.832C119.952 82.704 119.968 82.592 119.968 82.464C119.968 81.936 119.504 81.936 119.104 81.952L119.264 81.296C119.68 81.2 120.144 81.04 120.576 80.864C121.072 80.656 121.536 80.4 121.92 80.128Z" fill="#A8ACB7"/>
<path d="M117.378 80.1279H118.61L118.354 81.1199H116.562L115.282 85.9199C115.234 86.0959 115.218 86.2559 115.218 86.3999C115.218 86.8799 115.49 87.0559 115.826 87.0559C116.258 87.0559 116.626 86.7199 116.626 86.7199L116.882 87.0399C116.482 87.5519 115.714 88.2079 114.754 88.2079C113.778 88.2079 113.17 87.7919 113.17 86.8479C113.17 86.6399 113.202 86.3999 113.266 86.1439L114.578 81.0399H113.634L113.842 80.1599C114.402 80.0639 115.058 79.6799 115.618 79.1519C116.114 78.6879 116.53 78.1119 116.802 77.5039H117.458L116.994 79.3759C116.962 79.5199 116.93 79.6319 116.93 79.7439C116.93 79.9839 117.058 80.1279 117.378 80.1279Z" fill="#A8ACB7"/>
<path d="M112.935 80.9122C112.935 81.4722 112.551 82.0322 111.831 82.0322C111.159 82.0322 110.983 81.6322 110.231 81.6322C109.479 81.6322 109.111 82.1442 108.791 83.4242L108.055 86.3362C108.007 86.5602 107.959 86.7202 107.959 86.8482C107.959 87.1362 108.183 87.2002 108.855 87.3122L108.679 88.0002H104.631L104.791 87.3282C105.591 87.2162 105.815 87.2802 106.007 86.4802L106.935 82.8322C106.951 82.7042 106.983 82.5922 106.983 82.4642C106.983 82.0162 106.647 81.9522 106.295 81.9522C106.231 81.9522 106.167 81.9522 106.103 81.9522L106.263 81.2962C106.695 81.2002 107.143 81.0402 107.575 80.8642C108.071 80.6562 108.551 80.4002 108.919 80.1282H109.655L109.447 80.8962C110.007 80.4162 110.871 79.8242 111.815 79.8242C112.567 79.8242 112.935 80.3682 112.935 80.9122Z" fill="#A8ACB7"/>
<path d="M104.246 82.08L103.286 85.872C102.966 87.136 103.718 87.184 104.134 86.928L103.894 87.824C103.462 88.08 102.87 88.208 102.342 88.208C101.35 88.208 101.094 87.76 101.03 87.52C100.79 87.68 100.07 88.192 98.7904 88.192C97.3184 88.192 96.3264 87.6 96.3264 86.352C96.3264 84.256 98.1824 83.536 101.238 82.864L102.118 82.672L102.262 82.08C102.486 81.216 102.134 80.832 101.59 80.832C101.11 80.832 100.774 81.168 100.454 81.552C100.022 82.048 99.6384 82.624 98.9984 82.624C98.4064 82.624 98.1664 82.336 98.1664 81.952C98.1664 81.008 99.7184 79.936 101.622 79.936C103.526 79.936 104.582 80.736 104.246 82.08ZM101.526 85.024L101.83 83.84L101.494 83.92C99.6224 84.384 98.3584 84.88 98.3584 85.888C98.3584 86.544 98.7584 86.976 99.6224 86.976C100.694 86.976 101.19 86.336 101.526 85.024Z" fill="#A8ACB7"/>
<path d="M96.3355 82.5759C96.3355 85.2639 93.9835 88.1599 91.4235 88.1599C90.6395 88.1599 90.0475 88.0159 89.6475 87.8399L89.2475 89.4559C89.2155 89.6319 89.1515 89.8079 89.1515 89.9679C89.1515 90.3519 89.7595 90.3679 90.0475 90.4159L89.8555 91.0879H85.8235L85.9835 90.4159C86.7835 90.3199 87.0075 90.3839 87.1995 89.5679L88.8795 82.8319C88.9115 82.7039 88.9275 82.5919 88.9275 82.4639C88.9275 82.0159 88.5915 81.9519 88.2555 81.9519C88.1755 81.9519 88.1115 81.9519 88.0475 81.9519L88.2235 81.2959C88.6395 81.1999 89.0875 81.0399 89.5195 80.8639C90.0155 80.6559 90.4955 80.3999 90.8635 80.1279H91.5835L91.4555 80.6079C92.1115 80.2399 93.0235 79.9199 93.9515 79.9199C95.6475 79.9199 96.3355 81.2959 96.3355 82.5759ZM94.2075 82.5279C94.2075 81.6479 93.7435 81.1999 92.8475 81.1999C92.2555 81.1999 91.6635 81.4719 91.1195 81.9519L90.1115 86.0159C90.0795 86.1279 90.0635 86.2399 90.0635 86.3359C90.0635 86.9279 90.6075 87.1359 91.3915 87.1359C93.1035 87.1359 94.2075 84.1119 94.2075 82.5279Z" fill="#A8ACB7"/>
<path d="M81.5677 81.7763C81.5677 81.9683 81.5357 82.1923 81.4877 82.4323L80.4797 86.3683C80.4317 86.5283 80.3837 86.7043 80.3837 86.8803C80.3837 87.2643 80.9757 87.2803 81.2477 87.3283L81.0877 88.0003H78.0637L79.4557 82.6403C79.4877 82.4803 79.5197 82.3203 79.5197 82.1923C79.5197 81.5683 79.0557 81.2963 78.4317 81.2963C78.0797 81.2963 77.1996 81.6323 76.6716 82.0003L75.6157 86.3683C75.5837 86.5443 75.5197 86.7043 75.5197 86.8803C75.5197 87.2643 76.1277 87.2803 76.4157 87.3283L76.2237 88.0003H72.1917L72.3517 87.3283C73.1517 87.2163 73.3757 87.2803 73.5677 86.4803L74.5277 82.6723C74.5597 82.5443 74.5757 82.4323 74.5757 82.3043C74.5757 81.7763 74.1117 81.7763 73.7117 81.7923L73.8717 81.1363C74.2877 81.0403 74.7517 80.8803 75.1837 80.7043C75.6797 80.4963 76.1437 80.2403 76.5277 79.9683H77.2317L77.0077 80.8003C77.4717 80.4803 78.3997 79.9843 79.5197 79.9843C80.6397 79.9843 81.5677 80.5763 81.5677 81.7763Z" fill="#A8ACB7"/>
<path d="M71.6587 80.1279H72.4107L70.8427 86.4319C70.8107 86.5759 70.7947 86.6879 70.7947 86.7839C70.7947 87.2319 71.1147 87.2479 71.4507 87.2799L71.2587 87.9999H68.3947L68.4907 87.5839C68.1867 87.7759 67.3547 88.1919 66.3627 88.1919C65.0667 88.1919 64.1547 87.6639 64.1547 86.5119C64.1547 86.3039 64.1867 86.0799 64.2507 85.8239L65.0827 82.5279C65.0987 82.4799 65.0987 82.4319 65.0987 82.3839C65.0987 81.9199 64.4427 81.9359 64.1867 81.9199L64.3307 81.2959C64.7467 81.2159 65.2267 81.0559 65.6747 80.8479C66.1547 80.6399 66.6027 80.3839 66.9867 80.1279H67.7067C67.7067 80.1279 66.5547 84.3359 66.2827 85.5519C66.2187 85.8239 66.1867 86.0479 66.1867 86.2399C66.1867 86.9279 66.5547 87.1679 67.1627 87.1679C67.9467 87.1679 68.5867 86.6879 68.8267 86.3999L69.7707 82.5599C69.7867 82.4959 69.7867 82.4479 69.7867 82.3999C69.7867 81.9359 69.2267 81.9199 68.9067 81.9199L69.0347 81.2959C69.4827 81.1999 69.9947 81.0239 70.4747 80.8159C70.9387 80.6079 71.3707 80.3519 71.6587 80.1279Z" fill="#A8ACB7"/>
<path d="M63.5419 81.7123C63.5419 82.3523 62.9659 82.8643 62.3259 82.8643C61.6699 82.8643 61.2379 82.4643 61.1579 82.0003C61.0619 81.5363 60.9659 81.0563 60.4059 81.0563C58.7419 81.0563 57.6219 83.7763 57.6219 85.1683C57.6219 86.2243 58.0699 87.0243 59.2059 87.0243C60.1499 87.0243 61.3339 86.2563 61.9099 85.5203L62.6939 86.0163C61.9099 87.3763 60.2299 88.1763 58.6619 88.1763C56.7419 88.1763 55.3499 87.2163 55.3499 85.2963C55.3499 82.6563 57.8139 79.9683 60.8859 79.9683C62.6939 79.9683 63.5419 80.8003 63.5419 81.7123Z" fill="#A8ACB7"/>
<path d="M54.0649 80.1279H54.8169L53.2489 86.4319C53.2169 86.5759 53.2009 86.6879 53.2009 86.7839C53.2009 87.2319 53.5209 87.2479 53.8569 87.2799L53.6649 87.9999H50.8009L50.8969 87.5839C50.5929 87.7759 49.7609 88.1919 48.7689 88.1919C47.4729 88.1919 46.5609 87.6639 46.5609 86.5119C46.5609 86.3039 46.5929 86.0799 46.6569 85.8239L47.4889 82.5279C47.5049 82.4799 47.5049 82.4319 47.5049 82.3839C47.5049 81.9199 46.8489 81.9359 46.5929 81.9199L46.7369 81.2959C47.1529 81.2159 47.6329 81.0559 48.0809 80.8479C48.5609 80.6399 49.0089 80.3839 49.3929 80.1279H50.1129C50.1129 80.1279 48.9609 84.3359 48.6889 85.5519C48.6249 85.8239 48.5929 86.0479 48.5929 86.2399C48.5929 86.9279 48.9609 87.1679 49.5689 87.1679C50.3529 87.1679 50.9929 86.6879 51.2329 86.3999L52.1769 82.5599C52.1929 82.4959 52.1929 82.4479 52.1929 82.3999C52.1929 81.9359 51.6329 81.9199 51.3129 81.9199L51.4409 81.2959C51.8889 81.1999 52.4009 81.0239 52.8809 80.8159C53.3449 80.6079 53.7769 80.3519 54.0649 80.1279Z" fill="#A8ACB7"/>
<path d="M45.6072 87.232L45.5112 88H40.2952L40.4232 87.28C41.2552 87.168 42.0232 86.944 41.9112 86.048L41.6392 83.776H37.9752L36.6792 85.936C36.1832 86.752 36.8392 87.12 37.5272 87.232L37.4312 88H32.9832L33.1432 87.232C33.8312 87.136 34.3272 87.248 35.2072 85.84L41.6712 75.52H43.0952L44.5032 86.192C44.6152 87.024 45.0792 87.184 45.6072 87.232ZM38.5512 82.816H41.5272L41.0312 78.704L38.5512 82.816Z" fill="#A8ACB7"/>
<path d="M199.853 108.813C201.892 109.845 203.996 110.778 206.237 111.235C206.513 111.276 206.781 111.357 207.034 111.475C207.16 111.535 207.27 111.624 207.355 111.734C207.441 111.844 207.499 111.972 207.527 112.109C207.545 112.35 207.467 112.589 207.311 112.774C206.955 113.253 206.354 113.478 205.78 113.595C205.205 113.713 204.741 113.607 204.176 113.785C202.823 114.287 201.335 114.201 199.896 114.096C198.273 113.976 196.646 113.842 195.018 113.837C194.731 113.837 194.441 113.837 194.154 113.849C192.208 113.904 190.255 114.18 188.328 113.916C187.89 113.856 187.449 113.861 187.009 113.832C183.964 113.636 185.881 108.763 186.595 106.561C187.308 104.358 184.089 73.8614 184.089 73.8614L157.079 74.4622L158.994 62.3002L168.477 59.1885C168.477 59.1885 188.986 62.901 190.35 63.0637C191.715 63.2265 192.854 66.3813 192.854 66.3813C193.802 67.9556 194.451 69.6914 194.769 71.5013C194.994 72.9257 195.074 74.3692 195.008 75.8098C194.783 83.5196 192.215 91.1672 193.206 98.8173C193.206 98.8173 193.469 106.386 194.041 106.877C194.613 107.367 197.771 107.755 199.853 108.813Z" fill="white" stroke="#A8ACB7" stroke-width="1.43617" stroke-linecap="round" stroke-linejoin="round"/>
<path d="M166.536 37.5762L171.575 36.5732C171.575 36.5732 171.115 41.6381 169.782 45.0203C168.449 48.4025 164.83 51.8517 164.408 53.4961C163.987 55.1406 166.536 37.5762 166.536 37.5762Z" fill="#A8ACB7" stroke="#A8ACB7" stroke-width="1.43617" stroke-linecap="round" stroke-linejoin="round"/>
<path d="M179.84 21.1846L177.138 22.075C177.083 22.0899 177.032 22.1151 176.987 22.1492C176.955 22.1787 176.929 22.2135 176.91 22.2521C176.747 22.5465 176.618 23.0684 176.549 23.1904C175.845 22.6614 175.462 22.6614 175.058 23.0205C174.691 24.6457 174.524 26.7162 175.014 28.3128C175.163 28.8015 175.269 29.302 175.333 29.8088C175.572 33.5333 175.457 37.3822 173.94 40.8194C173.222 42.4423 172.214 43.9311 171.45 45.5397C170.687 47.1482 169.954 49.5944 170.306 51.3226L178.411 49.2426C179.021 47.1817 179.412 43.7803 179.577 41.6452C179.859 37.9591 179.337 34.687 180.584 31.1851C181.983 29.2238 183.266 27.1826 184.426 25.0718C183.586 24.4064 182.413 23.5758 181.573 22.9175C181.015 22.4652 180.058 21.8548 179.84 21.1846Z" fill="white" stroke="#A8ACB7" stroke-width="1.43617" stroke-linecap="round" stroke-linejoin="round"/>
<path d="M179.596 24.9404C179.644 25.7244 179.783 26.5002 180.008 27.2527L179.596 24.9404Z" fill="#FBF4E5"/>
<path d="M179.596 24.9404C179.644 25.7244 179.783 26.5002 180.008 27.2527" stroke="#A8ACB7" stroke-width="1.19681" stroke-linecap="round" stroke-linejoin="round"/>
<path d="M177.827 26.0964C177.784 25.4396 177.832 24.78 177.968 24.1361C178.208 23.9302 178.686 23.6717 179.026 23.418" fill="#FBF4E5"/>
<path d="M177.827 26.0964C177.784 25.4396 177.832 24.78 177.968 24.1361C178.208 23.9302 178.686 23.6717 179.026 23.418" stroke="#A8ACB7" stroke-width="1.19681" stroke-linecap="round" stroke-linejoin="round"/>
<path d="M173.502 6.68897C173.502 6.68897 178.94 7.78285 179.471 10.265C180.003 12.7472 180.357 13.9129 182.016 14.2121L180 15.4927L179.873 20.5815L177.221 20.2033L166.838 29.0047L155.729 24.7273C155.729 24.7273 164.98 21.8549 165.986 18.1879C166.991 14.5209 169.806 6.4137 173.502 6.68897Z" fill="white" stroke="#A8ACB7" stroke-width="1.43617" stroke-linecap="round" stroke-linejoin="round"/>
<path d="M136.183 56.5862C136.183 56.5862 141.595 30.9553 155.729 24.7271C155.729 24.7271 169.16 22.0367 168.176 34.1364L166.292 43.821L155.944 46.2218L156.318 48.3976C156.318 48.3976 154.403 51.6505 149.396 53.1848C144.388 54.7191 136.183 56.5862 136.183 56.5862Z" fill="white" stroke="#A8ACB7" stroke-width="1.43617" stroke-linecap="round" stroke-linejoin="round"/>
<path d="M134.285 56.5864L145.468 53.9846C145.468 53.9846 148.378 52.254 150.509 51.7705C152.639 51.287 155.389 49.6784 156.318 48.4194C157.247 47.1604 157.079 48.1369 157.079 48.1369L163.501 61.4551C163.501 61.4551 164.049 65.6487 162.783 69.0979C161.517 72.5471 159.121 75.6636 159.121 75.6636L138.569 75.2567C138.569 75.2567 133.794 67.7742 134.007 62.7332C134.22 57.6923 134.285 56.5864 134.285 56.5864Z" fill="#A8ACB7" stroke="#A8ACB7" stroke-width="1.19681" stroke-linecap="round" stroke-linejoin="round"/>
<path d="M156.059 46.9546C156.059 46.9546 158.046 56.6416 159.743 60.0046C159.743 60.0046 160.559 62.0919 163.494 61.4552C166.429 60.8185 181.101 51.2488 183.768 50.9926C186.434 50.7365 188.414 51.3469 189.395 50.6456C190.377 49.9442 192.028 48.8312 192.028 48.8312C192.028 48.8312 194.264 48.6253 194.736 48.137C195.207 47.6488 196.21 46.5453 196.21 46.5453C196.21 46.5453 196.492 46.1384 197.44 45.9182C197.723 45.8395 197.98 45.689 198.188 45.4814C198.395 45.2738 198.545 45.0161 198.623 44.7333C198.623 44.7333 194.123 45.09 192.809 45.0206L191.495 44.9487C191.495 44.9487 193.101 44.865 194.099 44.166C195.097 43.4671 195.255 42.8831 195.255 42.8831H191.442C191.442 42.8831 187.971 42.5958 186.501 43.3929C185.032 44.19 178.816 48.0485 177.32 48.7642C175.824 49.4799 165.294 52.5174 165.294 52.5174L166.613 42.1123L155.782 45.0301L156.059 46.9546Z" fill="white" stroke="#A8ACB7" stroke-width="1.43617" stroke-linecap="round" stroke-linejoin="round"/>
<path d="M164.576 2.52631C162.383 -1.1096 153.946 2.40424 154.638 6.246C151.94 6.95212 152.45 10.2792 155.231 11.0332C158.139 11.8255 162.345 5.9085 164.576 2.52631Z" fill="#A8ACB7" stroke="#A8ACB7" stroke-width="0.478724" stroke-linecap="round" stroke-linejoin="round"/>
<path d="M144.977 58.7144C147.758 65.1388 153.319 68.7939 159.851 70.6154" stroke="white" stroke-width="1.19681" stroke-linecap="round" stroke-linejoin="round"/>
<path d="M181.034 50.7605C181.573 50.6145 188.433 51.6486 189.266 52.2996C191.092 53.7358 192.193 55.9307 192.569 58.219C192.945 60.5073 192.722 62.8459 192.497 65.1605L189.51 95.9281C191.516 98.4271 193.141 100.864 194.372 103.827C194.714 104.655 195.037 105.517 195.631 106.19C196.61 107.305 198.216 107.777 199.049 109.004C198.958 109.275 198.204 110.338 197.919 110.319L192.744 109.983C192.136 109.982 191.533 109.868 190.966 109.648C190.367 109.371 189.905 108.87 189.462 108.38C188.333 107.135 187.129 105.675 187.289 104.002C186.461 103.861 184.735 103.554 183.907 103.415C182.76 103.222 181.482 102.937 180.838 101.979C179.881 100.524 180.931 98.6449 181.59 97.0244C183.248 92.9385 182.152 88.3212 181.178 84.0199C179.534 76.7648 178.306 69.0813 180.503 61.9722C177.305 61.0818 171.745 59.7941 168.485 59.1789C168.638 59.1621 180.884 50.7749 181.034 50.7605Z" fill="white" stroke="#A8ACB7" stroke-width="1.43617" stroke-linecap="round" stroke-linejoin="round"/>
<path d="M177.221 20.2037C175.941 19.8327 174.146 19.8231 173.152 18.9877C172.085 18.0997 171.446 16.5941 172.03 15.3638" stroke="#A8ACB7" stroke-width="1.43617" stroke-linecap="round" stroke-linejoin="round"/>
<path d="M175.651 7.17252L177.626 7.9289C179.653 0.341128 167.372 1.78687 166.632 2.79459C165.409 4.47012 160.648 10.0616 158.714 12.9028C158.4 13.36 157.883 13.7765 157.89 14.3247C157.991 16.1534 159.566 17.805 161.328 18.3938C161.855 18.5661 162.413 18.626 162.965 18.5695C163.517 18.513 164.051 18.3415 164.533 18.0659C164.813 17.8642 165.107 17.6811 165.411 17.5177C165.786 17.3826 166.173 17.2848 166.567 17.2257C167.342 17.0492 168.056 16.6728 168.64 16.1342C169.849 15.0068 170.455 13.1877 172.044 12.6467C172.671 12.4337 173.358 12.4624 174.002 12.3068C174.537 12.1751 175.03 11.912 175.437 11.5412C175.844 11.1704 176.152 10.7038 176.333 10.1837C176.491 9.6665 176.51 9.11726 176.391 8.59009C176.271 8.06292 176.016 7.576 175.651 7.1773" fill="#A8ACB7"/>
<path d="M175.651 7.17252L177.626 7.9289C179.653 0.341128 167.372 1.78687 166.632 2.79459C165.409 4.47012 160.648 10.0616 158.714 12.9028C158.4 13.36 157.883 13.7765 157.89 14.3247C157.991 16.1534 159.566 17.805 161.328 18.3938C161.855 18.5661 162.413 18.626 162.965 18.5695C163.517 18.513 164.051 18.3415 164.533 18.0659C164.813 17.8642 165.107 17.6811 165.411 17.5177C165.786 17.3826 166.173 17.2848 166.567 17.2257C167.342 17.0492 168.056 16.6728 168.64 16.1342C169.849 15.0068 170.455 13.1877 172.044 12.6467C172.671 12.4337 173.358 12.4624 174.002 12.3068C174.537 12.1751 175.03 11.912 175.437 11.5412C175.844 11.1704 176.152 10.7038 176.333 10.1837C176.491 9.6665 176.51 9.11726 176.391 8.59009C176.271 8.06292 176.016 7.576 175.651 7.1773" stroke="#A8ACB7" stroke-width="1.19681" stroke-linecap="round" stroke-linejoin="round"/>
<path d="M156.497 36.8198C155.518 38.5145 155.392 41.3677 155.729 44.5416L156.497 36.8198Z" fill="#FBF4E5"/>
<path d="M156.497 36.8198C155.518 38.5145 155.392 41.3677 155.729 44.5416" stroke="#A8ACB7" stroke-width="1.43617" stroke-linecap="round" stroke-linejoin="round"/>
<path d="M177.848 13.602C178.234 13.602 178.547 13.2891 178.547 12.903C178.547 12.517 178.234 12.2041 177.848 12.2041C177.462 12.2041 177.15 12.517 177.15 12.903C177.15 13.2891 177.462 13.602 177.848 13.602Z" fill="#A8ACB7"/>
<path d="M148.804 58.7167C149.19 58.7167 149.503 58.4038 149.503 58.0178C149.503 57.6318 149.19 57.3188 148.804 57.3188C148.418 57.3188 148.105 57.6318 148.105 58.0178C148.105 58.4038 148.418 58.7167 148.804 58.7167Z" fill="white"/>
<path d="M150.987 61.7109C151.373 61.7109 151.686 61.3979 151.686 61.0119C151.686 60.6259 151.373 60.313 150.987 60.313C150.601 60.313 150.288 60.6259 150.288 61.0119C150.288 61.3979 150.601 61.7109 150.987 61.7109Z" fill="white"/>
<rect x="195.774" y="42.1763" width="10" height="2" fill="#A8ACB7" stroke="#A8ACB7" stroke-width="1.43617" stroke-linecap="round" stroke-linejoin="round"/>
<path d="M29.7815 118.836C34.0422 119.061 48.2674 123.037 40.0047 123.322L26.2102 125.067" stroke="#A8ACB7" stroke-width="5.0266" stroke-linecap="round" stroke-linejoin="round"/>
<path d="M1.15142 76.9575C1.05688 76.582 1.05688 76.1889 1.15142 75.8134C1.67323 75.4879 2.55169 75.282 3.49957 75.0953L5.79505 72.9602C5.79505 72.9602 10.8719 72.7759 11.0155 72.7759L14.9052 73.3073C16.2336 76.2275 17.2772 78.9921 16.1163 81.4121L16.9014 81.3091C19.2735 82.3025 20.389 84.8158 20.6427 87.7719C35.0786 89.9645 35.0164 106.404 33.3073 115.167L29.3148 120.359H13.7084V118.092L12.2411 120.359H7.30782L8.64106 117.965L8.37297 107.962C6.85619 105.402 5.53205 102.732 4.41154 99.9746C3.50675 98.1722 2.90595 96.7911 2.80302 96.1209C2.37217 93.3538 3.89451 85.4381 4.6126 82.1278H4.48574C3.18371 81.5537 2.03918 80.6744 1.14904 79.5642C0.950691 78.7065 0.951496 77.8148 1.15142 76.9575Z" fill="#A8ACB7" stroke="#A8ACB7" stroke-width="1.43617" stroke-linecap="round" stroke-linejoin="round"/>
<path d="M15.2809 74.8847C15.1876 74.7219 14.8022 68.0006 14.8022 68.0006C14.8022 68.0006 13.3947 67.8618 11.961 71.7418C11.961 71.7418 11.4535 73.5203 10.6923 74.0517C9.93116 74.5831 15.2881 76.3615 15.2881 76.3615L15.2809 74.8847Z" fill="#A8ACB7" stroke="#A8ACB7" stroke-width="1.43617" stroke-linecap="round" stroke-linejoin="round"/>
<path d="M1.15144 76.9578C1.0569 76.5822 1.0569 76.1891 1.15144 75.8136C1.67325 75.4881 2.55172 75.2822 3.49959 75.0955L5.79507 72.9604H5.84533C5.80464 73.1136 6.62326 72.9341 6.62326 72.9341C6.62326 72.9341 3.43496 77.3718 7.16422 79.945C9.10305 81.283 11.1185 82.1735 13.4762 82.0992C12.449 82.4313 11.4696 82.8964 10.5632 83.4828C8.01208 85.1868 6.1948 87.7875 5.47193 90.7689C4.74263 93.7463 4.36743 96.7994 4.35411 99.8647C3.48284 98.1198 2.90597 96.7841 2.80544 96.1283C2.37459 93.3612 3.88257 85.5078 4.60066 82.1998C3.26289 81.6082 2.08177 80.7123 1.15144 79.5836C0.949329 78.72 0.949329 77.8214 1.15144 76.9578Z" fill="white" stroke="#A8ACB7" stroke-width="1.43617" stroke-linecap="round" stroke-linejoin="round"/>
<path d="M6.78826 76.2853C6.39167 76.2853 6.07018 75.9638 6.07018 75.5672C6.07018 75.1706 6.39167 74.8491 6.78826 74.8491C7.18485 74.8491 7.50635 75.1706 7.50635 75.5672C7.50635 75.9638 7.18485 76.2853 6.78826 76.2853Z" fill="white"/>
<path d="M13.007 120.502L14.558 114.121C14.6067 113.94 14.724 113.785 14.8851 113.69C15.0462 113.594 15.2383 113.565 15.4203 113.609C15.6024 113.654 15.76 113.767 15.8596 113.926C15.9592 114.084 15.9929 114.275 15.9535 114.459L14.3474 121.077H13.7083C13.5432 121.076 13.3833 121.019 13.2555 120.914C13.1278 120.81 13.04 120.664 13.007 120.502Z" fill="#FBF4E5"/>
</svg>
