<svg width="279" height="95" viewBox="0 0 279 95" fill="none" xmlns="http://www.w3.org/2000/svg">
<path d="M205.738 69.0721C205.738 70.7361 202.186 76.3201 201.754 77.0401L201.002 76.9281C201.274 75.8401 201.946 71.9521 202.25 70.4001C202.57 68.8641 203.242 67.8081 204.474 67.8081C205.354 67.8081 205.738 68.5601 205.738 69.0721ZM202.202 79.1361C202.202 79.9521 201.418 80.5121 200.65 80.5121C199.946 80.5121 199.274 80.0321 199.274 79.2801C199.274 78.4641 200.058 77.8881 200.826 77.8881C201.53 77.8881 202.202 78.3841 202.202 79.1361Z" fill="#A8ACB7"/>
<path d="M193.301 75.1523C193.285 75.5043 193.205 75.7603 193.045 75.7603H187.429C187.317 76.1443 187.253 76.5123 187.237 76.8483C187.173 78.3843 188.005 79.1043 188.981 79.1043C189.973 79.1043 191.109 78.1603 191.605 77.3443L192.629 77.7603C192.085 78.8003 190.549 80.1763 188.437 80.1763C186.309 80.1763 184.869 78.8323 184.933 76.9283C185.045 74.2083 187.381 71.9683 190.069 71.9683C192.581 71.9683 193.365 73.6323 193.301 75.1523ZM191.205 74.2723C191.237 73.3923 190.741 72.9603 190.021 72.9603C189.173 72.9603 188.405 73.7443 187.893 74.6883H190.869C191.029 74.6883 191.189 74.4963 191.205 74.2723Z" fill="#A8ACB7"/>
<path d="M185.285 72.9122C185.285 73.4722 184.901 74.0322 184.181 74.0322C183.509 74.0322 183.333 73.6322 182.581 73.6322C181.829 73.6322 181.461 74.1442 181.141 75.4242L180.405 78.3362C180.357 78.5602 180.309 78.7202 180.309 78.8482C180.309 79.1362 180.533 79.2002 181.205 79.3122L181.029 80.0002H176.981L177.141 79.3282C177.941 79.2162 178.165 79.2802 178.357 78.4802L179.285 74.8322C179.301 74.7042 179.333 74.5922 179.333 74.4642C179.333 74.0162 178.997 73.9522 178.645 73.9522C178.581 73.9522 178.517 73.9522 178.453 73.9522L178.613 73.2962C179.045 73.2002 179.493 73.0402 179.925 72.8642C180.421 72.6562 180.901 72.4002 181.269 72.1282H182.005L181.797 72.8962C182.357 72.4162 183.221 71.8242 184.165 71.8242C184.917 71.8242 185.285 72.3682 185.285 72.9122Z" fill="#A8ACB7"/>
<path d="M173.333 68.6718L175.269 71.0878L174.725 71.2478L172.069 69.6318C171.717 69.4238 171.381 69.0718 171.381 68.6238C171.381 68.2078 171.685 67.9038 172.101 67.9038C172.597 67.9038 173.045 68.3038 173.333 68.6718ZM177.285 75.1518C177.269 75.5038 177.189 75.7598 177.029 75.7598H171.413C171.301 76.1438 171.237 76.5118 171.221 76.8478C171.157 78.3838 171.989 79.1038 172.965 79.1038C173.957 79.1038 175.093 78.1598 175.589 77.3438L176.613 77.7598C176.069 78.7998 174.533 80.1758 172.421 80.1758C170.293 80.1758 168.853 78.8318 168.917 76.9278C169.029 74.2078 171.365 71.9678 174.053 71.9678C176.565 71.9678 177.349 73.6318 177.285 75.1518ZM175.189 74.2718C175.221 73.3918 174.725 72.9598 174.005 72.9598C173.157 72.9598 172.389 73.7438 171.877 74.6878H174.853C175.013 74.6878 175.173 74.4958 175.189 74.2718Z" fill="#A8ACB7"/>
<path d="M169.118 69.376C169.118 69.984 168.51 70.48 167.742 70.48C166.99 70.48 166.366 69.984 166.366 69.376C166.366 68.768 166.99 68.272 167.742 68.272C168.51 68.272 169.118 68.768 169.118 69.376ZM167.582 72.128H168.286L166.718 78.368C166.686 78.528 166.622 78.704 166.622 78.88C166.622 79.264 167.23 79.28 167.518 79.328L167.326 80H163.294L163.454 79.328C164.254 79.216 164.478 79.296 164.67 78.48L165.582 74.832C165.614 74.704 165.63 74.592 165.63 74.464C165.63 73.936 165.166 73.936 164.766 73.952L164.926 73.296C165.342 73.2 165.806 73.04 166.238 72.864C166.734 72.656 167.198 72.4 167.582 72.128Z" fill="#A8ACB7"/>
<path d="M163.004 73.7763C163.004 73.9683 162.972 74.1923 162.908 74.4323L161.948 78.3683C161.916 78.5283 161.868 78.7043 161.868 78.8803C161.868 79.2643 162.444 79.2803 162.732 79.3283L162.556 80.0003H159.484L160.86 74.6403C160.908 74.4803 160.924 74.3203 160.924 74.1923C160.924 73.5683 160.492 73.2963 159.868 73.2963C159.564 73.2963 158.876 73.5363 158.348 73.8563C158.348 74.0323 158.316 74.2243 158.268 74.4323L157.308 78.3683C157.26 78.5443 157.228 78.7043 157.228 78.8803C157.228 79.2643 157.836 79.2803 158.108 79.3283L157.932 80.0003H153.9L154.06 79.3283C154.86 79.2163 155.084 79.2963 155.276 78.4803L156.22 74.6403C156.252 74.4803 156.284 74.3203 156.284 74.1923C156.284 73.5683 155.98 73.3123 155.548 73.3123C154.684 73.3123 154.108 73.6963 153.724 74.0003L152.668 78.3683C152.636 78.5443 152.572 78.7043 152.572 78.8803C152.572 79.2643 153.18 79.2803 153.468 79.3283L153.276 80.0003H149.244L149.404 79.3283C150.204 79.2163 150.428 79.2803 150.62 78.4803L151.58 74.6723C151.612 74.5443 151.628 74.4323 151.628 74.3043C151.628 73.7763 151.164 73.7763 150.764 73.7923L150.924 73.1363C151.34 73.0403 151.804 72.8803 152.236 72.7043C152.732 72.4963 153.196 72.2403 153.58 71.9683H154.284L154.06 72.8003C154.444 72.5763 155.084 71.9843 156.3 71.9843C157.1 71.9843 157.82 72.3043 158.156 72.9123C158.684 72.5443 159.9 71.9843 160.956 71.9843C162.06 71.9843 163.004 72.5763 163.004 73.7763Z" fill="#A8ACB7"/>
<path d="M149.769 75.1523C149.753 75.5043 149.673 75.7603 149.513 75.7603H143.897C143.785 76.1443 143.721 76.5123 143.705 76.8483C143.641 78.3843 144.473 79.1043 145.449 79.1043C146.441 79.1043 147.577 78.1603 148.073 77.3443L149.097 77.7603C148.553 78.8003 147.017 80.1763 144.905 80.1763C142.777 80.1763 141.337 78.8323 141.401 76.9283C141.513 74.2083 143.849 71.9683 146.537 71.9683C149.049 71.9683 149.833 73.6323 149.769 75.1523ZM147.673 74.2723C147.705 73.3923 147.209 72.9603 146.489 72.9603C145.641 72.9603 144.873 73.7443 144.361 74.6883H147.337C147.497 74.6883 147.657 74.4963 147.673 74.2723Z" fill="#A8ACB7"/>
<path d="M141.754 72.9122C141.754 73.4722 141.37 74.0322 140.65 74.0322C139.978 74.0322 139.802 73.6322 139.05 73.6322C138.298 73.6322 137.93 74.1442 137.61 75.4242L136.874 78.3362C136.826 78.5602 136.778 78.7202 136.778 78.8482C136.778 79.1362 137.002 79.2002 137.674 79.3122L137.498 80.0002H133.45L133.61 79.3282C134.41 79.2162 134.634 79.2802 134.826 78.4802L135.754 74.8322C135.77 74.7042 135.802 74.5922 135.802 74.4642C135.802 74.0162 135.466 73.9522 135.114 73.9522C135.05 73.9522 134.986 73.9522 134.922 73.9522L135.082 73.2962C135.514 73.2002 135.962 73.0402 136.394 72.8642C136.89 72.6562 137.37 72.4002 137.738 72.1282H138.474L138.266 72.8962C138.826 72.4162 139.69 71.8242 140.634 71.8242C141.386 71.8242 141.754 72.3682 141.754 72.9122Z" fill="#A8ACB7"/>
<path d="M133.779 74.5759C133.779 77.2639 131.427 80.1599 128.867 80.1599C128.083 80.1599 127.491 80.0159 127.091 79.8399L126.691 81.4559C126.659 81.6319 126.595 81.8079 126.595 81.9679C126.595 82.3519 127.203 82.3679 127.491 82.4159L127.299 83.0879H123.267L123.427 82.4159C124.227 82.3199 124.451 82.3839 124.643 81.5679L126.323 74.8319C126.355 74.7039 126.371 74.5919 126.371 74.4639C126.371 74.0159 126.035 73.9519 125.699 73.9519C125.619 73.9519 125.555 73.9519 125.491 73.9519L125.667 73.2959C126.083 73.1999 126.531 73.0399 126.963 72.8639C127.459 72.6559 127.939 72.3999 128.307 72.1279H129.027L128.899 72.6079C129.555 72.2399 130.467 71.9199 131.395 71.9199C133.091 71.9199 133.779 73.2959 133.779 74.5759ZM131.651 74.5279C131.651 73.6479 131.187 73.1999 130.291 73.1999C129.699 73.1999 129.107 73.4719 128.563 73.9519L127.555 78.0159C127.523 78.1279 127.507 78.2399 127.507 78.3359C127.507 78.9279 128.051 79.1359 128.835 79.1359C130.547 79.1359 131.651 76.1119 131.651 74.5279Z" fill="#A8ACB7"/>
<path d="M118.893 74.08L117.933 77.872C117.613 79.136 118.365 79.184 118.781 78.928L118.541 79.824C118.109 80.08 117.517 80.208 116.989 80.208C115.997 80.208 115.741 79.76 115.677 79.52C115.437 79.68 114.717 80.192 113.437 80.192C111.965 80.192 110.973 79.6 110.973 78.352C110.973 76.256 112.829 75.536 115.885 74.864L116.765 74.672L116.909 74.08C117.133 73.216 116.781 72.832 116.237 72.832C115.757 72.832 115.421 73.168 115.101 73.552C114.669 74.048 114.285 74.624 113.645 74.624C113.053 74.624 112.813 74.336 112.813 73.952C112.813 73.008 114.365 71.936 116.269 71.936C118.173 71.936 119.229 72.736 118.893 74.08ZM116.173 77.024L116.477 75.84L116.141 75.92C114.269 76.384 113.005 76.88 113.005 77.888C113.005 78.544 113.405 78.976 114.269 78.976C115.341 78.976 115.837 78.336 116.173 77.024Z" fill="#A8ACB7"/>
<path d="M111.171 67.5039H111.875L109.155 78.3679C109.123 78.5279 109.059 78.7039 109.059 78.8799C109.059 79.2639 109.667 79.2799 109.955 79.3279L109.763 79.9999H105.731L105.891 79.3279C106.691 79.2159 106.915 79.2799 107.107 78.4799L109.171 70.2079C109.203 70.0959 109.219 69.9679 109.219 69.8399C109.219 69.3119 108.755 69.3119 108.355 69.3279L108.515 68.6719C108.931 68.5759 109.379 68.4319 109.827 68.2399C110.323 68.0319 110.787 67.7759 111.171 67.5039Z" fill="#A8ACB7"/>
<path d="M95.7357 72.1279H101.448L101.4 72.8639L95.2877 79.2319H96.3277C97.6237 79.2319 98.5197 78.5439 99.2237 77.8719L99.8157 77.2959L100.2 77.6159L98.5997 79.9999H92.7117L92.8077 79.1359L98.8717 72.8639H98.1997C97.1277 72.8639 95.8637 73.4399 95.1597 74.1439L94.8237 74.4799L94.5037 74.2399L95.7357 72.1279Z" fill="#A8ACB7"/>
<path d="M93.1758 75.1523C93.1598 75.5043 93.0798 75.7603 92.9198 75.7603H87.3038C87.1918 76.1443 87.1278 76.5123 87.1118 76.8483C87.0478 78.3843 87.8798 79.1043 88.8558 79.1043C89.8478 79.1043 90.9838 78.1603 91.4798 77.3443L92.5038 77.7603C91.9598 78.8003 90.4238 80.1763 88.3118 80.1763C86.1838 80.1763 84.7438 78.8323 84.8078 76.9283C84.9198 74.2083 87.2558 71.9683 89.9438 71.9683C92.4558 71.9683 93.2398 73.6323 93.1758 75.1523ZM91.0798 74.2723C91.1118 73.3923 90.6158 72.9603 89.8958 72.9603C89.0478 72.9603 88.2798 73.7443 87.7678 74.6883H90.7438C90.9038 74.6883 91.0638 74.4963 91.0798 74.2723Z" fill="#A8ACB7"/>
<path d="M84.2115 72.1279H85.4435L85.1875 73.1199H83.3955L82.1155 77.9199C82.0675 78.0959 82.0515 78.2559 82.0515 78.3999C82.0515 78.8799 82.3235 79.0559 82.6595 79.0559C83.0915 79.0559 83.4595 78.7199 83.4595 78.7199L83.7155 79.0399C83.3155 79.5519 82.5475 80.2079 81.5875 80.2079C80.6115 80.2079 80.0035 79.7919 80.0035 78.8479C80.0035 78.6399 80.0355 78.3999 80.0995 78.1439L81.4115 73.0399H80.4675L80.6755 72.1599C81.2355 72.0639 81.8915 71.6799 82.4515 71.1519C82.9475 70.6879 83.3635 70.1119 83.6355 69.5039H84.2915L83.8275 71.3759C83.7955 71.5199 83.7635 71.6319 83.7635 71.7439C83.7635 71.9839 83.8915 72.1279 84.2115 72.1279Z" fill="#A8ACB7"/>
<path d="M78.4145 72.1279H79.1665L77.5985 78.4319C77.5665 78.5759 77.5505 78.6879 77.5505 78.7839C77.5505 79.2319 77.8705 79.2479 78.2065 79.2799L78.0145 79.9999H75.1505L75.2465 79.5839C74.9425 79.7759 74.1105 80.1919 73.1185 80.1919C71.8225 80.1919 70.9105 79.6639 70.9105 78.5119C70.9105 78.3039 70.9425 78.0799 71.0065 77.8239L71.8385 74.5279C71.8545 74.4799 71.8545 74.4319 71.8545 74.3839C71.8545 73.9199 71.1985 73.9359 70.9425 73.9199L71.0865 73.2959C71.5025 73.2159 71.9825 73.0559 72.4305 72.8479C72.9105 72.6399 73.3585 72.3839 73.7425 72.1279H74.4625C74.4625 72.1279 73.3105 76.3359 73.0385 77.5519C72.9745 77.8239 72.9425 78.0479 72.9425 78.2399C72.9425 78.9279 73.3105 79.1679 73.9185 79.1679C74.7025 79.1679 75.3425 78.6879 75.5825 78.3999L76.5265 74.5599C76.5425 74.4959 76.5425 74.4479 76.5425 74.3999C76.5425 73.9359 75.9825 73.9199 75.6625 73.9199L75.7905 73.2959C76.2385 73.1999 76.7505 73.0239 77.2305 72.8159C77.6945 72.6079 78.1265 72.3519 78.4145 72.1279Z" fill="#A8ACB7"/>
<path d="M70.258 75.1683C70.258 77.2963 68.21 80.1763 65.09 80.1763C62.546 80.1763 61.682 78.9603 61.682 77.2803C61.682 74.4963 63.922 71.9683 66.93 71.9683C68.898 71.9683 70.258 73.1043 70.258 75.1683ZM68.21 74.5763C68.21 73.7603 67.73 73.0243 66.738 73.0243C64.994 73.0243 63.778 75.6003 63.778 77.8563C63.778 78.7523 64.29 79.2323 65.122 79.2323C67.186 79.2323 68.21 76.4003 68.21 74.5763Z" fill="#A8ACB7"/>
<path d="M62.2986 69.376C62.2986 69.984 61.6906 70.48 60.9226 70.48C60.1546 70.48 59.5466 69.984 59.5466 69.376C59.5466 68.768 60.1546 68.272 60.9226 68.272C61.6906 68.272 62.2986 68.768 62.2986 69.376ZM60.7306 72.128H61.4506L59.3706 80.304C58.9226 82.08 57.7546 83.12 55.9306 83.12C54.7786 83.12 53.7706 82.56 53.7706 81.712C53.7706 81.12 54.1866 80.64 54.8426 80.64C55.3706 80.64 55.6106 80.896 55.7706 81.168C55.9786 81.504 56.0746 81.856 56.4266 81.856C56.8426 81.856 57.0826 81.408 57.2266 80.864L58.8426 74.576C58.8586 74.496 58.8746 74.432 58.8746 74.368C58.8746 73.888 58.2826 73.92 58.0106 73.904L58.1546 73.264L60.7306 72.128Z" fill="#A8ACB7"/>
<path d="M56.3617 74.08L55.4017 77.872C55.0817 79.136 55.8337 79.184 56.2497 78.928L56.0097 79.824C55.5777 80.08 54.9857 80.208 54.4577 80.208C53.4657 80.208 53.2097 79.76 53.1457 79.52C52.9057 79.68 52.1857 80.192 50.9057 80.192C49.4337 80.192 48.4417 79.6 48.4417 78.352C48.4417 76.256 50.2977 75.536 53.3537 74.864L54.2337 74.672L54.3777 74.08C54.6017 73.216 54.2497 72.832 53.7057 72.832C53.2257 72.832 52.8897 73.168 52.5697 73.552C52.1377 74.048 51.7537 74.624 51.1137 74.624C50.5217 74.624 50.2817 74.336 50.2817 73.952C50.2817 73.008 51.8337 71.936 53.7377 71.936C55.6417 71.936 56.6977 72.736 56.3617 74.08ZM53.6417 77.024L53.9457 75.84L53.6097 75.92C51.7377 76.384 50.4737 76.88 50.4737 77.888C50.4737 78.544 50.8737 78.976 51.7377 78.976C52.8097 78.976 53.3057 78.336 53.6417 77.024Z" fill="#A8ACB7"/>
<path d="M216.387 65.2159C216.387 66.6399 214.307 68.9919 213.795 69.4079L213.155 68.9439C213.715 68.3519 214.355 67.3759 214.355 66.8319C214.355 66.2879 213.667 66.2719 213.667 65.3919C213.667 64.7359 214.227 63.9839 215.171 63.9839C215.939 63.9839 216.387 64.6559 216.387 65.2159Z" fill="#A8ACB7"/>
<path d="M212.18 58.1279H213.412L213.156 59.1199H211.364L210.084 63.9199C210.036 64.0959 210.02 64.2559 210.02 64.3999C210.02 64.8799 210.292 65.0559 210.628 65.0559C211.06 65.0559 211.428 64.7199 211.428 64.7199L211.684 65.0399C211.284 65.5519 210.516 66.2079 209.556 66.2079C208.58 66.2079 207.972 65.7919 207.972 64.8479C207.972 64.6399 208.004 64.3999 208.068 64.1439L209.38 59.0399H208.436L208.644 58.1599C209.204 58.0639 209.86 57.6799 210.42 57.1519C210.916 56.6879 211.332 56.1119 211.604 55.5039H212.26L211.796 57.3759C211.764 57.5199 211.732 57.6319 211.732 57.7439C211.732 57.9839 211.86 58.1279 212.18 58.1279Z" fill="#A8ACB7"/>
<path d="M206.745 59.7758C206.745 59.9678 206.713 60.1918 206.665 60.4318L205.657 64.3678C205.609 64.5278 205.561 64.7038 205.561 64.8798C205.561 65.2638 206.153 65.2798 206.425 65.3278L206.265 65.9998H203.241L204.633 60.6398C204.665 60.4798 204.697 60.3198 204.697 60.1918C204.697 59.5678 204.233 59.2958 203.609 59.2958C203.257 59.2958 202.377 59.6318 201.849 59.9998L200.793 64.3678C200.761 64.5438 200.697 64.7038 200.697 64.8798C200.697 65.2638 201.305 65.2798 201.593 65.3278L201.401 65.9998H197.369L197.529 65.3278C198.329 65.2158 198.553 65.2798 198.745 64.4798L199.705 60.6718C199.737 60.5438 199.753 60.4318 199.753 60.3038C199.753 59.7758 199.289 59.7758 198.889 59.7918L199.049 59.1358C199.465 59.0398 199.929 58.8798 200.361 58.7038C200.857 58.4958 201.321 58.2398 201.705 57.9678H202.409L202.185 58.7998C202.649 58.4798 203.577 57.9838 204.697 57.9838C205.817 57.9838 206.745 58.5758 206.745 59.7758Z" fill="#A8ACB7"/>
<path d="M198.02 61.1518C198.004 61.5038 197.924 61.7598 197.764 61.7598H192.148C192.036 62.1438 191.972 62.5118 191.956 62.8478C191.892 64.3838 192.724 65.1038 193.7 65.1038C194.692 65.1038 195.828 64.1598 196.324 63.3438L197.348 63.7598C196.804 64.7998 195.268 66.1758 193.156 66.1758C191.028 66.1758 189.588 64.8318 189.652 62.9278C189.764 60.2078 192.1 57.9678 194.788 57.9678C197.3 57.9678 198.084 59.6318 198.02 61.1518ZM195.924 60.2718C195.956 59.3918 195.46 58.9598 194.74 58.9598C193.892 58.9598 193.124 59.7438 192.612 60.6878H195.588C195.748 60.6878 195.908 60.4958 195.924 60.2718Z" fill="#A8ACB7"/>
<path d="M188.895 59.7758C188.895 59.9678 188.863 60.1918 188.799 60.4318L187.839 64.3678C187.807 64.5278 187.759 64.7038 187.759 64.8798C187.759 65.2638 188.335 65.2798 188.623 65.3278L188.447 65.9998H185.375L186.751 60.6398C186.799 60.4798 186.815 60.3198 186.815 60.1918C186.815 59.5678 186.383 59.2958 185.759 59.2958C185.455 59.2958 184.767 59.5358 184.239 59.8558C184.239 60.0318 184.207 60.2238 184.159 60.4318L183.199 64.3678C183.151 64.5438 183.119 64.7038 183.119 64.8798C183.119 65.2638 183.727 65.2798 183.999 65.3278L183.823 65.9998H179.791L179.951 65.3278C180.751 65.2158 180.975 65.2958 181.167 64.4798L182.111 60.6398C182.143 60.4798 182.175 60.3198 182.175 60.1918C182.175 59.5678 181.871 59.3118 181.439 59.3118C180.575 59.3118 179.999 59.6958 179.615 59.9998L178.559 64.3678C178.527 64.5438 178.463 64.7038 178.463 64.8798C178.463 65.2638 179.071 65.2798 179.359 65.3278L179.167 65.9998H175.135L175.295 65.3278C176.095 65.2158 176.319 65.2798 176.511 64.4798L177.471 60.6718C177.503 60.5438 177.519 60.4318 177.519 60.3038C177.519 59.7758 177.055 59.7758 176.655 59.7918L176.815 59.1358C177.231 59.0398 177.695 58.8798 178.127 58.7038C178.623 58.4958 179.087 58.2398 179.471 57.9678H180.175L179.951 58.7998C180.335 58.5758 180.975 57.9838 182.191 57.9838C182.991 57.9838 183.711 58.3038 184.047 58.9118C184.575 58.5438 185.791 57.9838 186.847 57.9838C187.951 57.9838 188.895 58.5758 188.895 59.7758Z" fill="#A8ACB7"/>
<path d="M175.57 61.1678C175.57 63.2958 173.522 66.1758 170.402 66.1758C167.858 66.1758 166.995 64.9598 166.995 63.2798C166.995 60.4958 169.234 57.9678 172.242 57.9678C174.21 57.9678 175.57 59.1038 175.57 61.1678ZM173.523 60.5758C173.523 59.7598 173.043 59.0238 172.051 59.0238C170.307 59.0238 169.09 61.5998 169.09 63.8558C169.09 64.7518 169.602 65.2318 170.434 65.2318C172.498 65.2318 173.523 62.3998 173.523 60.5758Z" fill="#A8ACB7"/>
<path d="M166.145 59.7758C166.145 59.9678 166.113 60.1918 166.049 60.4318L165.089 64.3678C165.057 64.5278 165.009 64.7038 165.009 64.8798C165.009 65.2638 165.585 65.2798 165.873 65.3278L165.697 65.9998H162.625L164.001 60.6398C164.049 60.4798 164.065 60.3198 164.065 60.1918C164.065 59.5678 163.633 59.2958 163.009 59.2958C162.705 59.2958 162.017 59.5358 161.489 59.8558C161.489 60.0318 161.457 60.2238 161.409 60.4318L160.449 64.3678C160.401 64.5438 160.369 64.7038 160.369 64.8798C160.369 65.2638 160.977 65.2798 161.249 65.3278L161.073 65.9998H157.041L157.201 65.3278C158.001 65.2158 158.225 65.2958 158.417 64.4798L159.361 60.6398C159.393 60.4798 159.425 60.3198 159.425 60.1918C159.425 59.5678 159.121 59.3118 158.689 59.3118C157.825 59.3118 157.249 59.6958 156.865 59.9998L155.809 64.3678C155.777 64.5438 155.713 64.7038 155.713 64.8798C155.713 65.2638 156.321 65.2798 156.609 65.3278L156.417 65.9998H152.385L152.545 65.3278C153.345 65.2158 153.569 65.2798 153.761 64.4798L154.721 60.6718C154.753 60.5438 154.769 60.4318 154.769 60.3038C154.769 59.7758 154.305 59.7758 153.905 59.7918L154.065 59.1358C154.481 59.0398 154.945 58.8798 155.377 58.7038C155.873 58.4958 156.337 58.2398 156.721 57.9678H157.425L157.201 58.7998C157.585 58.5758 158.225 57.9838 159.441 57.9838C160.241 57.9838 160.961 58.3038 161.297 58.9118C161.825 58.5438 163.041 57.9838 164.097 57.9838C165.201 57.9838 166.145 58.5758 166.145 59.7758Z" fill="#A8ACB7"/>
<path d="M147.66 61.1518C147.644 61.5038 147.564 61.7598 147.404 61.7598H141.788C141.676 62.1438 141.612 62.5118 141.596 62.8478C141.532 64.3838 142.364 65.1038 143.34 65.1038C144.332 65.1038 145.468 64.1598 145.964 63.3438L146.988 63.7598C146.444 64.7998 144.908 66.1758 142.796 66.1758C140.668 66.1758 139.228 64.8318 139.292 62.9278C139.404 60.2078 141.74 57.9678 144.428 57.9678C146.94 57.9678 147.724 59.6318 147.66 61.1518ZM145.564 60.2718C145.596 59.3918 145.1 58.9598 144.38 58.9598C143.532 58.9598 142.764 59.7438 142.252 60.6878H145.228C145.388 60.6878 145.548 60.4958 145.564 60.2718Z" fill="#A8ACB7"/>
<path d="M139.202 53.5039H139.906L137.186 64.3679C137.154 64.5279 137.09 64.7039 137.09 64.8799C137.09 65.2639 137.698 65.2799 137.986 65.3279L137.794 65.9999H133.762L133.922 65.3279C134.722 65.2159 134.946 65.2799 135.138 64.4799L137.202 56.2079C137.234 56.0959 137.25 55.9679 137.25 55.8399C137.25 55.3119 136.786 55.3119 136.386 55.3279L136.546 54.6719C136.962 54.5759 137.41 54.4319 137.858 54.2399C138.354 54.0319 138.818 53.7759 139.202 53.5039Z" fill="#A8ACB7"/>
<path d="M129.598 58.9122C129.598 59.4722 129.214 60.0322 128.494 60.0322C127.822 60.0322 127.646 59.6322 126.894 59.6322C126.142 59.6322 125.774 60.1442 125.454 61.4242L124.718 64.3362C124.67 64.5602 124.622 64.7202 124.622 64.8482C124.622 65.1362 124.846 65.2002 125.518 65.3122L125.342 66.0002H121.294L121.454 65.3282C122.254 65.2162 122.478 65.2802 122.67 64.4802L123.598 60.8322C123.614 60.7042 123.646 60.5922 123.646 60.4642C123.646 60.0162 123.31 59.9522 122.958 59.9522C122.894 59.9522 122.83 59.9522 122.766 59.9522L122.926 59.2962C123.358 59.2002 123.806 59.0402 124.238 58.8642C124.734 58.6562 125.214 58.4002 125.582 58.1282H126.318L126.11 58.8962C126.67 58.4162 127.534 57.8242 128.478 57.8242C129.23 57.8242 129.598 58.3682 129.598 58.9122Z" fill="#A8ACB7"/>
<path d="M120.665 58.1279H121.417L119.849 64.4319C119.817 64.5759 119.801 64.6879 119.801 64.7839C119.801 65.2319 120.121 65.2479 120.457 65.2799L120.265 65.9999H117.401L117.497 65.5839C117.193 65.7759 116.361 66.1919 115.369 66.1919C114.073 66.1919 113.161 65.6639 113.161 64.5119C113.161 64.3039 113.193 64.0799 113.257 63.8239L114.089 60.5279C114.105 60.4799 114.105 60.4319 114.105 60.3839C114.105 59.9199 113.449 59.9359 113.193 59.9199L113.337 59.2959C113.753 59.2159 114.233 59.0559 114.681 58.8479C115.161 58.6399 115.609 58.3839 115.993 58.1279H116.713C116.713 58.1279 115.561 62.3359 115.289 63.5519C115.225 63.8239 115.193 64.0479 115.193 64.2399C115.193 64.9279 115.561 65.1679 116.169 65.1679C116.953 65.1679 117.593 64.6879 117.833 64.3999L118.777 60.5599C118.793 60.4959 118.793 60.4479 118.793 60.3999C118.793 59.9359 118.233 59.9199 117.913 59.9199L118.041 59.2959C118.489 59.1999 119.001 59.0239 119.481 58.8159C119.945 58.6079 120.377 58.3519 120.665 58.1279Z" fill="#A8ACB7"/>
<path d="M112.508 61.1678C112.508 63.2958 110.46 66.1758 107.34 66.1758C104.796 66.1758 103.932 64.9598 103.932 63.2798C103.932 60.4958 106.172 57.9678 109.18 57.9678C111.148 57.9678 112.508 59.1038 112.508 61.1678ZM110.46 60.5758C110.46 59.7598 109.98 59.0238 108.988 59.0238C107.244 59.0238 106.028 61.5998 106.028 63.8558C106.028 64.7518 106.54 65.2318 107.372 65.2318C109.436 65.2318 110.46 62.3998 110.46 60.5758Z" fill="#A8ACB7"/>
<path d="M103.685 60.5759C103.685 63.2639 101.333 66.1599 98.7731 66.1599C97.9891 66.1599 97.3971 66.0159 96.9971 65.8399L96.5971 67.4559C96.5651 67.6319 96.5011 67.8079 96.5011 67.9679C96.5011 68.3519 97.1091 68.3679 97.3971 68.4159L97.2051 69.0879H93.1731L93.3331 68.4159C94.1331 68.3199 94.3571 68.3839 94.5491 67.5679L96.2291 60.8319C96.2611 60.7039 96.2771 60.5919 96.2771 60.4639C96.2771 60.0159 95.9411 59.9519 95.6051 59.9519C95.5251 59.9519 95.4611 59.9519 95.3971 59.9519L95.5731 59.2959C95.9891 59.1999 96.4371 59.0399 96.8691 58.8639C97.3651 58.6559 97.8451 58.3999 98.2131 58.1279H98.9331L98.8051 58.6079C99.4611 58.2399 100.373 57.9199 101.301 57.9199C102.997 57.9199 103.685 59.2959 103.685 60.5759ZM101.557 60.5279C101.557 59.6479 101.093 59.1999 100.197 59.1999C99.6051 59.1999 99.0131 59.4719 98.4691 59.9519L97.4611 64.0159C97.4291 64.1279 97.4131 64.2399 97.4131 64.3359C97.4131 64.9279 97.9571 65.1359 98.7411 65.1359C100.453 65.1359 101.557 62.1119 101.557 60.5279Z" fill="#A8ACB7"/>
<path d="M89.4883 61.1518C89.4723 61.5038 89.3923 61.7598 89.2323 61.7598H83.6163C83.5043 62.1438 83.4403 62.5118 83.4243 62.8478C83.3603 64.3838 84.1923 65.1038 85.1683 65.1038C86.1603 65.1038 87.2963 64.1598 87.7923 63.3438L88.8163 63.7598C88.2723 64.7998 86.7363 66.1758 84.6243 66.1758C82.4963 66.1758 81.0563 64.8318 81.1203 62.9278C81.2323 60.2078 83.5683 57.9678 86.2563 57.9678C88.7683 57.9678 89.5523 59.6318 89.4883 61.1518ZM87.3923 60.2718C87.4243 59.3918 86.9283 58.9598 86.2083 58.9598C85.3603 58.9598 84.5923 59.7438 84.0803 60.6878H87.0563C87.2163 60.6878 87.3763 60.4958 87.3923 60.2718Z" fill="#A8ACB7"/>
<path d="M80.3845 54.5442C80.3845 54.9762 80.0485 55.3442 79.6965 55.5522L77.0405 57.1682L76.4965 57.0082L78.4325 54.5922C78.7205 54.2242 79.1685 53.8242 79.6645 53.8242C80.0805 53.8242 80.3845 54.1282 80.3845 54.5442ZM80.8165 61.1522C80.8005 61.5042 80.7205 61.7602 80.5605 61.7602H74.9445C74.8325 62.1442 74.7685 62.5122 74.7525 62.8482C74.6885 64.3842 75.5205 65.1042 76.4965 65.1042C77.4885 65.1042 78.6245 64.1602 79.1205 63.3442L80.1445 63.7602C79.6005 64.8002 78.0645 66.1762 75.9525 66.1762C73.8245 66.1762 72.3845 64.8322 72.4485 62.9282C72.5605 60.2082 74.8965 57.9682 77.5845 57.9682C80.0965 57.9682 80.8805 59.6322 80.8165 61.1522ZM78.7205 60.2722C78.7525 59.3922 78.2565 58.9602 77.5365 58.9602C76.6885 58.9602 75.9205 59.7442 75.4085 60.6882H78.3845C78.5445 60.6882 78.7045 60.4962 78.7205 60.2722Z" fill="#A8ACB7"/>
<path d="M71.8522 58.1279H73.0842L72.8282 59.1199H71.0362L69.7562 63.9199C69.7082 64.0959 69.6922 64.2559 69.6922 64.3999C69.6922 64.8799 69.9642 65.0559 70.3002 65.0559C70.7322 65.0559 71.1002 64.7199 71.1002 64.7199L71.3562 65.0399C70.9562 65.5519 70.1882 66.2079 69.2282 66.2079C68.2522 66.2079 67.6442 65.7919 67.6442 64.8479C67.6442 64.6399 67.6762 64.3999 67.7402 64.1439L69.0522 59.0399H68.1082L68.3162 58.1599C68.8762 58.0639 69.5322 57.6799 70.0922 57.1519C70.5882 56.6879 71.0042 56.1119 71.2762 55.5039H71.9322L71.4682 57.3759C71.4362 57.5199 71.4042 57.6319 71.4042 57.7439C71.4042 57.9839 71.5322 58.1279 71.8522 58.1279Z" fill="#A8ACB7"/>
<path d="M66.0551 58.1279H66.8071L65.2391 64.4319C65.2071 64.5759 65.1911 64.6879 65.1911 64.7839C65.1911 65.2319 65.5111 65.2479 65.8471 65.2799L65.6551 65.9999H62.7911L62.8871 65.5839C62.5831 65.7759 61.7511 66.1919 60.7591 66.1919C59.4631 66.1919 58.5511 65.6639 58.5511 64.5119C58.5511 64.3039 58.5831 64.0799 58.6471 63.8239L59.4791 60.5279C59.4951 60.4799 59.4951 60.4319 59.4951 60.3839C59.4951 59.9199 58.8391 59.9359 58.5831 59.9199L58.7271 59.2959C59.1431 59.2159 59.6231 59.0559 60.0711 58.8479C60.5511 58.6399 60.9991 58.3839 61.3831 58.1279H62.1031C62.1031 58.1279 60.9511 62.3359 60.6791 63.5519C60.6151 63.8239 60.5831 64.0479 60.5831 64.2399C60.5831 64.9279 60.9511 65.1679 61.5591 65.1679C62.3431 65.1679 62.9831 64.6879 63.2231 64.3999L64.1671 60.5599C64.1831 60.4959 64.1831 60.4479 64.1831 60.3999C64.1831 59.9359 63.6231 59.9199 63.3031 59.9199L63.4311 59.2959C63.8791 59.1999 64.3911 59.0239 64.8711 58.8159C65.3351 58.6079 65.7671 58.3519 66.0551 58.1279Z" fill="#A8ACB7"/>
<path d="M57.8986 61.1678C57.8986 63.2958 55.8506 66.1758 52.7306 66.1758C50.1866 66.1758 49.3226 64.9598 49.3226 63.2798C49.3226 60.4958 51.5626 57.9678 54.5706 57.9678C56.5386 57.9678 57.8986 59.1038 57.8986 61.1678ZM55.8506 60.5758C55.8506 59.7598 55.3706 59.0238 54.3786 59.0238C52.6346 59.0238 51.4186 61.5998 51.4186 63.8558C51.4186 64.7518 51.9306 65.2318 52.7626 65.2318C54.8266 65.2318 55.8506 62.3998 55.8506 60.5758Z" fill="#A8ACB7"/>
<path d="M49.9393 55.376C49.9393 55.984 49.3313 56.48 48.5633 56.48C47.7953 56.48 47.1873 55.984 47.1873 55.376C47.1873 54.768 47.7953 54.272 48.5633 54.272C49.3313 54.272 49.9393 54.768 49.9393 55.376ZM48.3713 58.128H49.0913L47.0113 66.304C46.5633 68.08 45.3953 69.12 43.5713 69.12C42.4193 69.12 41.4113 68.56 41.4113 67.712C41.4113 67.12 41.8273 66.64 42.4833 66.64C43.0113 66.64 43.2513 66.896 43.4113 67.168C43.6193 67.504 43.7153 67.856 44.0673 67.856C44.4833 67.856 44.7233 67.408 44.8673 66.864L46.4833 60.576C46.4993 60.496 46.5153 60.432 46.5153 60.368C46.5153 59.888 45.9233 59.92 45.6513 59.904L45.7953 59.264L48.3713 58.128Z" fill="#A8ACB7"/>
<path d="M44.0023 60.08L43.0423 63.872C42.7223 65.136 43.4743 65.184 43.8903 64.928L43.6503 65.824C43.2183 66.08 42.6263 66.208 42.0983 66.208C41.1063 66.208 40.8503 65.76 40.7863 65.52C40.5463 65.68 39.8263 66.192 38.5463 66.192C37.0743 66.192 36.0823 65.6 36.0823 64.352C36.0823 62.256 37.9383 61.536 40.9943 60.864L41.8743 60.672L42.0183 60.08C42.2423 59.216 41.8903 58.832 41.3463 58.832C40.8663 58.832 40.5303 59.168 40.2103 59.552C39.7783 60.048 39.3943 60.624 38.7543 60.624C38.1623 60.624 37.9223 60.336 37.9223 59.952C37.9223 59.008 39.4743 57.936 41.3783 57.936C43.2823 57.936 44.3383 58.736 44.0023 60.08ZM41.2823 63.024L41.5863 61.84L41.2503 61.92C39.3783 62.384 38.1143 62.88 38.1143 63.888C38.1143 64.544 38.5143 64.976 39.3783 64.976C40.4503 64.976 40.9463 64.336 41.2823 63.024Z" fill="#A8ACB7"/>
<path d="M188.371 47.1518C188.355 47.5038 188.275 47.7598 188.115 47.7598H182.499C182.387 48.1438 182.323 48.5118 182.307 48.8478C182.243 50.3838 183.075 51.1038 184.051 51.1038C185.043 51.1038 186.179 50.1598 186.675 49.3438L187.699 49.7598C187.155 50.7998 185.619 52.1758 183.507 52.1758C181.379 52.1758 179.939 50.8318 180.003 48.9278C180.115 46.2078 182.451 43.9678 185.139 43.9678C187.651 43.9678 188.435 45.6318 188.371 47.1518ZM186.275 46.2718C186.307 45.3918 185.811 44.9598 185.091 44.9598C184.243 44.9598 183.475 45.7438 182.963 46.6878H185.939C186.099 46.6878 186.259 46.4958 186.275 46.2718Z" fill="#A8ACB7"/>
<path d="M178.961 44.096L179.265 46.288L178.625 46.368C178.257 45.632 177.537 44.784 176.065 44.784C175.297 44.784 174.753 45.2 174.753 45.792C174.753 46.56 175.889 46.736 176.993 47.104C178.065 47.472 179.105 48.016 179.105 49.504C179.105 51.184 177.825 52.224 175.649 52.224C174.353 52.224 173.217 51.712 172.977 51.584L172.705 51.904H172.065L171.841 49.44L172.577 49.296C172.817 49.776 173.585 51.232 175.489 51.232C176.529 51.232 177.073 50.784 177.073 50.16C177.073 49.248 175.857 49.04 174.721 48.64C173.729 48.304 172.785 47.808 172.785 46.56C172.785 45.056 174.257 43.936 176.177 43.936C177.265 43.936 177.841 44.24 178.145 44.336L178.417 44.096H178.961Z" fill="#A8ACB7"/>
<path d="M171.206 45.7758C171.206 45.9678 171.174 46.1918 171.126 46.4318L170.118 50.3678C170.07 50.5278 170.022 50.7038 170.022 50.8798C170.022 51.2638 170.614 51.2798 170.886 51.3278L170.726 51.9998H167.702L169.094 46.6398C169.126 46.4798 169.158 46.3198 169.158 46.1918C169.158 45.5678 168.694 45.2958 168.07 45.2958C167.718 45.2958 166.838 45.6318 166.31 45.9998L165.254 50.3678C165.222 50.5438 165.158 50.7038 165.158 50.8798C165.158 51.2638 165.766 51.2798 166.054 51.3278L165.862 51.9998H161.83L161.99 51.3278C162.79 51.2158 163.014 51.2798 163.206 50.4798L164.166 46.6718C164.198 46.5438 164.214 46.4318 164.214 46.3038C164.214 45.7758 163.75 45.7758 163.35 45.7918L163.51 45.1358C163.926 45.0398 164.39 44.8798 164.822 44.7038C165.318 44.4958 165.782 44.2398 166.166 43.9678H166.87L166.646 44.7998C167.11 44.4798 168.038 43.9838 169.158 43.9838C170.278 43.9838 171.206 44.5758 171.206 45.7758Z" fill="#A8ACB7"/>
<path d="M162.48 47.1518C162.464 47.5038 162.384 47.7598 162.224 47.7598H156.608C156.496 48.1438 156.432 48.5118 156.416 48.8478C156.352 50.3838 157.184 51.1038 158.16 51.1038C159.152 51.1038 160.288 50.1598 160.784 49.3438L161.808 49.7598C161.264 50.7998 159.728 52.1758 157.616 52.1758C155.488 52.1758 154.048 50.8318 154.112 48.9278C154.224 46.2078 156.56 43.9678 159.248 43.9678C161.76 43.9678 162.544 45.6318 162.48 47.1518ZM160.384 46.2718C160.416 45.3918 159.92 44.9598 159.2 44.9598C158.352 44.9598 157.584 45.7438 157.072 46.6878H160.048C160.208 46.6878 160.368 46.4958 160.384 46.2718Z" fill="#A8ACB7"/>
<path d="M153.834 46.5759C153.834 49.2639 151.482 52.1599 148.922 52.1599C148.138 52.1599 147.546 52.0159 147.146 51.8399L146.746 53.4559C146.714 53.6319 146.65 53.8079 146.65 53.9679C146.65 54.3519 147.258 54.3679 147.546 54.4159L147.354 55.0879H143.322L143.482 54.4159C144.282 54.3199 144.506 54.3839 144.698 53.5679L146.378 46.8319C146.41 46.7039 146.426 46.5919 146.426 46.4639C146.426 46.0159 146.09 45.9519 145.754 45.9519C145.674 45.9519 145.61 45.9519 145.546 45.9519L145.722 45.2959C146.138 45.1999 146.586 45.0399 147.018 44.8639C147.514 44.6559 147.994 44.3999 148.362 44.1279H149.082L148.954 44.6079C149.61 44.2399 150.522 43.9199 151.45 43.9199C153.146 43.9199 153.834 45.2959 153.834 46.5759ZM151.706 46.5279C151.706 45.6479 151.242 45.1999 150.346 45.1999C149.754 45.1999 149.162 45.4719 148.618 45.9519L147.61 50.0159C147.578 50.1279 147.562 50.2399 147.562 50.3359C147.562 50.9279 148.106 51.1359 148.89 51.1359C150.602 51.1359 151.706 48.1119 151.706 46.5279Z" fill="#A8ACB7"/>
<path d="M144.33 40.5442C144.33 40.9762 143.994 41.3442 143.642 41.5522L140.986 43.1682L140.442 43.0082L142.378 40.5922C142.666 40.2242 143.114 39.8242 143.61 39.8242C144.026 39.8242 144.33 40.1282 144.33 40.5442ZM144.762 47.1522C144.746 47.5042 144.666 47.7602 144.506 47.7602H138.89C138.778 48.1442 138.714 48.5122 138.698 48.8482C138.634 50.3842 139.466 51.1042 140.442 51.1042C141.434 51.1042 142.57 50.1602 143.066 49.3442L144.09 49.7602C143.546 50.8002 142.01 52.1762 139.898 52.1762C137.77 52.1762 136.33 50.8322 136.394 48.9282C136.506 46.2082 138.842 43.9682 141.53 43.9682C144.042 43.9682 144.826 45.6322 144.762 47.1522ZM142.666 46.2722C142.698 45.3922 142.202 44.9602 141.482 44.9602C140.634 44.9602 139.866 45.7442 139.354 46.6882H142.33C142.49 46.6882 142.65 46.4962 142.666 46.2722Z" fill="#A8ACB7"/>
<path d="M136.418 39.52H137.122L134.434 50.32C134.418 50.416 134.402 50.512 134.402 50.592C134.402 51.104 134.85 51.232 135.266 51.232L135.09 52H131.89L132.002 51.552C131.698 51.744 131.074 52.16 130.002 52.16C128.21 52.16 127.234 50.928 127.234 49.2C127.234 46.416 129.154 43.952 132.066 43.952C132.642 43.952 133.346 43.984 133.842 44.32C134.002 43.744 134.466 42.4 134.466 41.856C134.466 41.328 134.002 41.328 133.602 41.344L133.762 40.688C134.642 40.48 135.682 40.064 136.418 39.52ZM132.578 49.44L133.602 45.408C133.346 45.024 132.754 44.928 132.338 44.928C130.322 44.928 129.282 47.968 129.282 49.6C129.282 50.432 129.73 51.04 130.61 51.04C131.714 51.04 132.306 50.48 132.578 49.44Z" fill="#A8ACB7"/>
<path d="M121.949 47.1518C121.933 47.5038 121.853 47.7598 121.693 47.7598H116.077C115.965 48.1438 115.901 48.5118 115.885 48.8478C115.821 50.3838 116.653 51.1038 117.629 51.1038C118.621 51.1038 119.757 50.1598 120.253 49.3438L121.277 49.7598C120.733 50.7998 119.197 52.1758 117.085 52.1758C114.957 52.1758 113.517 50.8318 113.581 48.9278C113.693 46.2078 116.029 43.9678 118.717 43.9678C121.229 43.9678 122.013 45.6318 121.949 47.1518ZM119.853 46.2718C119.885 45.3918 119.389 44.9598 118.669 44.9598C117.821 44.9598 117.053 45.7438 116.541 46.6878H119.517C119.677 46.6878 119.837 46.4958 119.853 46.2718Z" fill="#A8ACB7"/>
<path d="M112.831 45.7758C112.831 45.9678 112.799 46.1918 112.751 46.4318L111.743 50.3678C111.695 50.5278 111.647 50.7038 111.647 50.8798C111.647 51.2638 112.239 51.2798 112.511 51.3278L112.351 51.9998H109.327L110.719 46.6398C110.751 46.4798 110.783 46.3198 110.783 46.1918C110.783 45.5678 110.319 45.2958 109.695 45.2958C109.343 45.2958 108.463 45.6318 107.935 45.9998L106.879 50.3678C106.847 50.5438 106.783 50.7038 106.783 50.8798C106.783 51.2638 107.391 51.2798 107.679 51.3278L107.487 51.9998H103.455L103.615 51.3278C104.415 51.2158 104.639 51.2798 104.831 50.4798L105.791 46.6718C105.823 46.5438 105.839 46.4318 105.839 46.3038C105.839 45.7758 105.375 45.7758 104.975 45.7918L105.135 45.1358C105.551 45.0398 106.015 44.8798 106.447 44.7038C106.943 44.4958 107.407 44.2398 107.791 43.9678H108.495L108.271 44.7998C108.735 44.4798 109.663 43.9838 110.783 43.9838C111.903 43.9838 112.831 44.5758 112.831 45.7758Z" fill="#A8ACB7"/>
<path d="M102.922 44.1279H103.674L102.106 50.4319C102.074 50.5759 102.058 50.6879 102.058 50.7839C102.058 51.2319 102.378 51.2479 102.714 51.2799L102.522 51.9999H99.6583L99.7543 51.5839C99.4503 51.7759 98.6183 52.1919 97.6263 52.1919C96.3303 52.1919 95.4183 51.6639 95.4183 50.5119C95.4183 50.3039 95.4503 50.0799 95.5143 49.8239L96.3463 46.5279C96.3623 46.4799 96.3623 46.4319 96.3623 46.3839C96.3623 45.9199 95.7063 45.9359 95.4503 45.9199L95.5943 45.2959C96.0103 45.2159 96.4903 45.0559 96.9383 44.8479C97.4183 44.6399 97.8663 44.3839 98.2503 44.1279H98.9703C98.9703 44.1279 97.8183 48.3359 97.5463 49.5519C97.4823 49.8239 97.4503 50.0479 97.4503 50.2399C97.4503 50.9279 97.8183 51.1679 98.4263 51.1679C99.2103 51.1679 99.8503 50.6879 100.09 50.3999L101.034 46.5599C101.05 46.4959 101.05 46.4479 101.05 46.3999C101.05 45.9359 100.49 45.9199 100.17 45.9199L100.298 45.2959C100.746 45.1999 101.258 45.0239 101.738 44.8159C102.202 44.6079 102.634 44.3519 102.922 44.1279Z" fill="#A8ACB7"/>
<path d="M94.8056 45.7118C94.8056 46.3518 94.2296 46.8638 93.5896 46.8638C92.9336 46.8638 92.5016 46.4638 92.4216 45.9998C92.3256 45.5358 92.2296 45.0558 91.6696 45.0558C90.0056 45.0558 88.8856 47.7758 88.8856 49.1678C88.8856 50.2238 89.3336 51.0238 90.4696 51.0238C91.4136 51.0238 92.5976 50.2558 93.1736 49.5198L93.9576 50.0158C93.1736 51.3758 91.4936 52.1758 89.9256 52.1758C88.0056 52.1758 86.6136 51.2158 86.6136 49.2958C86.6136 46.6558 89.0776 43.9678 92.1496 43.9678C93.9576 43.9678 94.8056 44.7998 94.8056 45.7118Z" fill="#A8ACB7"/>
<path d="M85.3286 44.1279H86.0806L84.5126 50.4319C84.4806 50.5759 84.4646 50.6879 84.4646 50.7839C84.4646 51.2319 84.7846 51.2479 85.1206 51.2799L84.9286 51.9999H82.0646L82.1606 51.5839C81.8566 51.7759 81.0246 52.1919 80.0326 52.1919C78.7366 52.1919 77.8246 51.6639 77.8246 50.5119C77.8246 50.3039 77.8566 50.0799 77.9206 49.8239L78.7526 46.5279C78.7686 46.4799 78.7686 46.4319 78.7686 46.3839C78.7686 45.9199 78.1126 45.9359 77.8566 45.9199L78.0006 45.2959C78.4166 45.2159 78.8966 45.0559 79.3446 44.8479C79.8246 44.6399 80.2726 44.3839 80.6566 44.1279H81.3766C81.3766 44.1279 80.2246 48.3359 79.9526 49.5519C79.8886 49.8239 79.8566 50.0479 79.8566 50.2399C79.8566 50.9279 80.2246 51.1679 80.8326 51.1679C81.6166 51.1679 82.2566 50.6879 82.4966 50.3999L83.4406 46.5599C83.4566 46.4959 83.4566 46.4479 83.4566 46.3999C83.4566 45.9359 82.8966 45.9199 82.5766 45.9199L82.7046 45.2959C83.1526 45.1999 83.6646 45.0239 84.1446 44.8159C84.6086 44.6079 85.0406 44.3519 85.3286 44.1279Z" fill="#A8ACB7"/>
<path d="M76.8708 51.232L76.7748 52H71.5588L71.6868 51.28C72.5188 51.168 73.2868 50.944 73.1748 50.048L72.9028 47.776H69.2388L67.9428 49.936C67.4468 50.752 68.1028 51.12 68.7908 51.232L68.6948 52H64.2468L64.4068 51.232C65.0948 51.136 65.5908 51.248 66.4708 49.84L72.9348 39.52H74.3588L75.7668 50.192C75.8788 51.024 76.3428 51.184 76.8708 51.232ZM69.8148 46.816H72.7908L72.2948 42.704L69.8148 46.816Z" fill="#A8ACB7"/>
<path d="M40.3499 43.6099L45.0195 42.9772C45.0195 42.9772 45.3801 43.4496 44.9878 43.7765C45.2852 44.7151 45.667 46.394 45.0532 47.497C44.1632 49.0957 35.868 55.3956 35.868 55.3956C35.868 55.3956 29.6588 55.9714 29.6314 55.7563C29.604 55.5412 26.8199 46.801 29.7263 44.4325C32.6327 42.064 36.3131 40.0476 39.1161 42.4478C39.5495 42.811 39.9615 43.199 40.3499 43.6099Z" fill="white" stroke="#A8ACB7" stroke-width="1.26547" stroke-miterlimit="10"/>
<path d="M38.1605 50.933C39.388 50.0577 39.426 46.6789 39.426 46.5292C39.1075 42.4459 32.7232 42.3721 31.5737 43.1757C26.3874 46.8034 28.8488 51.3801 29.4267 53.9216C29.4499 54.1072 34.7479 53.6158 34.7479 53.6158C34.7479 53.6158 36.3762 52.3735 38.1605 50.933Z" fill="#A8ACB7" stroke="#A8ACB7" stroke-width="1.26547" stroke-miterlimit="10"/>
<path d="M35.4693 55.2856C35.4693 55.2856 41.4845 63.4416 39.9217 69.1109C38.3588 74.7802 17.6895 86.684 17.6895 86.684C17.6895 86.684 11.1176 86.8822 11.1176 79.4054C11.1176 71.0766 17.4238 68.9949 20.3154 66.9617C23.207 64.9285 29.6271 57.07 29.6271 57.07L35.4693 55.2856Z" fill="white" stroke="#A8ACB7" stroke-width="1.26547" stroke-miterlimit="10"/>
<path d="M18.5267 68.5775C22.9559 71.1084 27.2289 71.1401 28.4227 65.9285C28.7791 63.117 27.7604 64.1505 26.2292 62.2017C23.7194 65.8019 20.8004 65.8146 18.5267 68.5775Z" fill="#A8ACB7" stroke="#A8ACB7" stroke-width="1.26547" stroke-miterlimit="10"/>
<path d="M37.0174 67.6306C37.1059 71.5535 29.4246 75.932 30.2281 77.5434C32.5608 76.0248 39.5905 70.3112 39.9701 68.9382C40.2042 68.0946 40.1367 67.0042 40.0777 66.0783C39.4154 63.6338 36.971 65.3105 37.0174 67.6306Z" fill="#A8ACB7" stroke="#A8ACB7" stroke-width="1.26547" stroke-miterlimit="10"/>
<path d="M30.2618 77.5671L32.6135 86.6784H38.0318C38.476 86.6784 38.9019 86.502 39.2159 86.188C39.53 85.8739 39.7064 85.4479 39.7064 85.0038C39.7069 84.682 39.6144 84.3668 39.4401 84.0963C39.2657 83.8258 39.0169 83.6114 38.7236 83.4789C38.1858 83.2343 37.6269 82.9601 37.6269 82.8652C37.6269 82.6817 35.6696 75.7701 36.8317 73.4459C37.9938 71.1216 30.2618 77.5671 30.2618 77.5671Z" fill="#A8ACB7" stroke="#A8ACB7" stroke-width="1.26547" stroke-miterlimit="10"/>
<path d="M30.6182 46.1831L26.7649 49.5767C26.0267 50.226 25.5605 51.1297 25.4593 52.1076C25.28 53.8708 25.105 56.5367 25.6386 56.8215C26.2102 57.1188 31.0442 59.964 33.7713 61.5733C33.9511 61.679 34.1562 61.7341 34.3648 61.7326C34.5734 61.7312 34.7777 61.6734 34.9561 61.5653C35.1344 61.4572 35.2802 61.3028 35.378 61.1186C35.4758 60.9343 35.5218 60.727 35.5113 60.5187L34.7921 47.3832" fill="#A8ACB7"/>
<path d="M30.6182 46.1831L26.7649 49.5767C26.0267 50.226 25.5605 51.1297 25.4593 52.1076C25.28 53.8708 25.105 56.5367 25.6386 56.8215C26.2102 57.1188 31.0442 59.964 33.7713 61.5733C33.9511 61.679 34.1562 61.7341 34.3648 61.7326C34.5734 61.7312 34.7777 61.6734 34.9561 61.5653C35.1344 61.4572 35.2802 61.3028 35.378 61.1186C35.4758 60.9343 35.5218 60.727 35.5113 60.5187L34.7921 47.3832" stroke="#A8ACB7" stroke-width="1.26547" stroke-miterlimit="10"/>
<path d="M14.0216 84.6072C-0.320361 85.7251 1.62002 75.2744 7.06153 75.2744" stroke="#A8ACB7" stroke-width="4.42913" stroke-linecap="round" stroke-linejoin="round"/>
<path d="M29.7073 85.4205C29.711 85.1805 29.6463 84.9444 29.5208 84.7397C29.3953 84.5351 29.2142 84.3703 28.9986 84.2647L26.145 82.9318C26.145 82.9318 24.1793 78.7515 23.7659 78.1019C23.7659 78.1019 21.1211 74.5734 18.1515 75.2736C12.6446 76.5749 6.53028 82.7082 17.679 86.6839H28.522C28.8465 86.6729 29.1534 86.5337 29.3755 86.297C29.5977 86.0602 29.717 85.7451 29.7073 85.4205Z" fill="#A8ACB7" stroke="#A8ACB7" stroke-width="1.26547" stroke-miterlimit="10"/>
<path d="M38.0065 46.0628C38.356 46.0628 38.6392 45.7795 38.6392 45.4301C38.6392 45.0806 38.356 44.7974 38.0065 44.7974C37.6571 44.7974 37.3738 45.0806 37.3738 45.4301C37.3738 45.7795 37.6571 46.0628 38.0065 46.0628Z" fill="white"/>
<path d="M36.467 87.3173H37.6185C37.9644 86.8428 38.1606 86.1278 38.1606 85.2251C38.1606 83.407 36.583 82.7553 36.0641 82.5402C36.0114 82.1458 35.8321 80.933 35.2353 77.0417L35.2142 76.9067C35.2079 76.8652 35.1936 76.8253 35.1719 76.7893C35.1503 76.7533 35.1217 76.7219 35.0879 76.6969C35.0542 76.672 35.0158 76.6539 34.975 76.6437C34.9342 76.6336 34.8919 76.6316 34.8503 76.6378C34.8088 76.644 34.7689 76.6584 34.7329 76.6801C34.6969 76.7017 34.6655 76.7303 34.6405 76.764C34.6156 76.7978 34.5975 76.8362 34.5873 76.877C34.5772 76.9177 34.5752 76.9601 34.5814 77.0016L34.6025 77.1366C35.347 81.9876 35.4462 82.6815 35.4462 82.7448C35.4462 82.9725 35.6275 83.0485 35.8216 83.1265C36.6146 83.4555 37.5257 83.9912 37.5257 85.2356C37.5279 86.2142 37.2473 87.254 36.467 87.3173Z" fill="white"/>
<path d="M253.203 62.7081L260.796 59.7554L266.839 67.1077L260.248 70.3009L253.203 62.7081Z" fill="white" stroke="#A8ACB7" stroke-width="1.26547" stroke-linejoin="round"/>
<path d="M256.259 66.3252C259.436 66.1775 261.408 64.4712 263.243 61.9909C263.243 61.9909 267.438 63.8343 268.758 63.6381C269.547 63.52 271.361 62.4697 273.096 62.0647C273.794 61.889 274.53 61.9559 275.184 62.2546C275.838 62.5532 276.371 63.0658 276.695 63.7077L277.116 64.5725L258.487 73.5953C257.297 71.8573 256.605 68.9637 256.259 66.3252Z" fill="white" stroke="#A8ACB7" stroke-width="1.26547" stroke-linejoin="round"/>
<path d="M277.115 64.5682L258.487 73.5933L259.443 75.5653L278.07 66.5403L277.115 64.5682Z" fill="white" stroke="#A8ACB7" stroke-width="1.26547" stroke-linejoin="round"/>
<path d="M268.758 63.6382L270.331 67.8585" stroke="#A8ACB7" stroke-width="1.26547" stroke-linejoin="round"/>
<path d="M263.92 65.0959L264.641 62.5649" stroke="#A8ACB7" stroke-width="1.26547" stroke-linecap="round" stroke-linejoin="round"/>
<path d="M266.908 63.3516L266.263 65.4438" stroke="#A8ACB7" stroke-width="1.26547" stroke-linecap="round" stroke-linejoin="round"/>
<path d="M222.703 56.4718L237.195 46.85L253.613 65.2647L263.477 60.1142L242.242 37.1059C242.242 37.1059 240.555 35.3997 236.919 36.6609C233.283 37.9221 204.439 49.5265 204.439 49.5265L222.703 56.4718Z" fill="white" stroke="#A8ACB7" stroke-width="1.26547" stroke-linecap="round" stroke-linejoin="round"/>
<path d="M242.869 78.3154L250.883 78.1045L254.059 89.6329L246.737 89.8079L242.869 78.3154Z" fill="white" stroke="#A8ACB7" stroke-width="1.26547" stroke-linejoin="round"/>
<path d="M244.756 84.5375C247.709 85.7186 250.21 84.9825 252.908 83.4829C252.908 83.4829 255.962 86.8976 257.244 87.2667C258.012 87.4776 260.098 87.2835 261.844 87.6336C262.552 87.7625 263.194 88.1285 263.666 88.6714C264.137 89.2143 264.41 89.9016 264.438 90.6201L264.46 91.5798L243.769 92.0733C243.406 90.0022 243.978 87.0811 244.756 84.5375Z" fill="white" stroke="#A8ACB7" stroke-width="1.26547" stroke-linejoin="round"/>
<path d="M264.454 91.5932L243.761 92.0845L243.813 94.2752L264.506 93.7839L264.454 91.5932Z" fill="white" stroke="#A8ACB7" stroke-width="1.26547" stroke-linejoin="round"/>
<path d="M257.245 87.271L256.926 91.7634" stroke="#A8ACB7" stroke-width="1.26547" stroke-linejoin="round"/>
<path d="M252.237 86.5915L253.941 84.5879" stroke="#A8ACB7" stroke-width="1.26547" stroke-linecap="round" stroke-linejoin="round"/>
<path d="M255.679 86.2437L254.224 87.8803" stroke="#A8ACB7" stroke-width="1.26547" stroke-linecap="round" stroke-linejoin="round"/>
<path d="M203.84 59.7179H221.777L233.441 59.8317L237.786 69.8184L243.959 81.4607L252.024 81.0389C252.024 81.0389 248.297 64.0774 244.01 54.4873L238.435 48.2337C234.991 45.9896 215.973 46.2575 215.973 46.2575L198.16 48.2211L198.714 59.6483L203.84 59.7179Z" fill="white" stroke="#A8ACB7" stroke-width="1.26547" stroke-linecap="round" stroke-linejoin="round"/>
<path d="M209.732 36.4331C210.222 36.5027 218.778 36.9941 218.778 36.9941V39.5251L209.732 40.6471V36.4331Z" fill="white" stroke="#A8ACB7" stroke-width="1.26547" stroke-linejoin="round"/>
<path d="M193.726 23.057L197.957 16.312L207.416 24.5797L215.973 46.2508L201.176 48.9168L193.726 23.057Z" fill="#EBEDF2" stroke="#A8ACB7" stroke-width="1.26547" stroke-linejoin="round"/>
<path d="M218.342 12.1381L215.883 15.829L216.84 18.6405C216.864 18.715 216.866 18.7945 216.847 18.8702C216.828 18.9459 216.788 19.0148 216.732 19.0692C216.676 19.1237 216.606 19.1615 216.53 19.1785C216.454 19.1955 216.374 19.1911 216.3 19.1656L214.702 18.573L213.592 19.9924L212.704 19.2057C212.486 19.689 212.149 20.1088 211.724 20.4258C211.299 20.7427 210.8 20.9463 210.275 21.0174C208.429 21.2916 207.543 19.6465 207.543 19.6465L206.295 24.9994L197.957 16.3078L203.652 10.6132L207.121 4.65283L218.342 12.1381Z" fill="white" stroke="#A8ACB7" stroke-width="1.26547" stroke-linejoin="round"/>
<path d="M211.099 12.2541C211.099 12.2541 211.392 10.8558 210.31 10.4382C209.228 10.0206 207.262 11.9019 207.311 13.7326C207.359 15.5633 208.34 15.4642 208.34 15.4642" fill="white"/>
<path d="M211.099 12.2541C211.099 12.2541 211.392 10.8558 210.31 10.4382C209.228 10.0206 207.262 11.9019 207.311 13.7326C207.359 15.5633 208.34 15.4642 208.34 15.4642" stroke="#A8ACB7" stroke-width="1.26547" stroke-linecap="round" stroke-linejoin="round"/>
<path d="M203.354 21.9689L197.466 15.8208C194.884 18.2632 192.727 20.851 191.096 23.6245C187.661 35.8004 190.373 42.5573 190.816 57.6248C194.357 59.5103 199.573 60.3666 202.861 59.7339C202.861 59.7339 203.019 47.2803 203.626 42.9313C204.234 38.5823 205.132 23.7911 203.354 21.9689Z" fill="white" stroke="#A8ACB7" stroke-width="1.26547" stroke-linejoin="round"/>
<path d="M229.299 28.9263L232.722 32.3683L219.55 43.2345L215.602 39.9126L229.299 28.9263Z" fill="white" stroke="#A8ACB7" stroke-width="1.26547" stroke-linejoin="round"/>
<path d="M226.036 33.402L222.309 32.0669L220.672 32.3685C219.215 33.9609 218.433 35.9645 217.861 38.1011L222.594 34.3827L225.161 35.277C225.374 35.3504 225.603 35.3668 225.825 35.3246C226.047 35.2824 226.254 35.1831 226.426 35.0365C226.558 34.9234 226.656 34.7762 226.709 34.611C226.763 34.4458 226.77 34.2691 226.73 34.1002C226.689 33.9313 226.603 33.7768 226.481 33.6536C226.358 33.5304 226.205 33.4434 226.036 33.402Z" fill="white" stroke="#A8ACB7" stroke-width="1.26547" stroke-linejoin="round"/>
<path d="M201.418 31.0716C201.418 31.0716 203.083 25.2315 197.972 25.0016C193.543 24.8033 190.118 27.7434 190.023 33.1618C189.928 38.5801 190.118 47.7969 191.24 49.1066C192.362 50.4164 197.356 51.2284 198.86 51.2432C200.364 51.2579 204.285 51.2432 204.285 51.2432L204.934 45.9999L198.16 43.1674L201.418 31.0716Z" fill="white" stroke="#A8ACB7" stroke-width="1.26547" stroke-linejoin="round"/>
<path d="M219.502 5.42053V11.7479L204.437 6.39494L205.805 2.38763C205.805 2.38763 209.857 0.21946 213.738 1.30354C216.075 1.9729 218.111 3.42674 219.502 5.42053Z" fill="white"/>
<path d="M204.437 6.39494L205.805 2.38763C205.805 2.38763 209.857 0.21946 213.738 1.30354C216.074 1.97072 218.109 3.42146 219.502 5.41209V11.7394L204.437 6.39494Z" stroke="#A8ACB7" stroke-width="1.26547" stroke-linejoin="round"/>
<path d="M214.955 50.2644C216.906 50.1189 221.771 46.468 221.771 46.468L220.742 42.2498C218.77 41.6112 216.688 41.3864 214.626 41.5897C214.626 41.5897 212.16 45.7488 212.036 45.9176L204.924 46.0019L204.274 51.2452L214.955 50.2644Z" fill="white" stroke="#A8ACB7" stroke-width="1.26547" stroke-linejoin="round"/>
<path d="M219.5 9.044V11.7542L204.434 6.39074L205.257 3.99268L219.5 9.044Z" fill="#A8ACB7" stroke="#A8ACB7" stroke-width="1.26547" stroke-linecap="round" stroke-linejoin="round"/>
<path d="M199.693 6.38232L222.794 15.2659C222.794 15.2659 219.01 9.95938 212.846 7.89666C209.471 6.7704 199.693 6.38232 199.693 6.38232Z" fill="white" stroke="#A8ACB7" stroke-width="1.26547" stroke-linejoin="round"/>
<path d="M214.254 15.6453C214.604 15.6453 214.887 15.3621 214.887 15.0126C214.887 14.6632 214.604 14.3799 214.254 14.3799C213.905 14.3799 213.622 14.6632 213.622 15.0126C213.622 15.3621 213.905 15.6453 214.254 15.6453Z" fill="#A8ACB7"/>
<path d="M204.434 11.7537C206.74 12.2409 208.231 11.3656 209.532 10.1656L204.681 8.29688L203.662 10.6169L204.434 11.7537Z" fill="#A8ACB7"/>
<path d="M237.195 46.8496L245.385 56.0348" stroke="#A8ACB7" stroke-width="1.26547" stroke-linecap="round" stroke-linejoin="round"/>
</svg>
