<svg width="24" height="24" viewBox="0 0 24 24" fill="none" xmlns="http://www.w3.org/2000/svg">
<path d="M14.1562 19.7266H9.84375C5.94094 19.7266 4.27344 18.0591 4.27344 14.1562V9.84375C4.27344 5.94094 5.94094 4.27344 9.84375 4.27344H14.1562C18.0591 4.27344 19.7266 5.94094 19.7266 9.84375V14.1562C19.7266 18.0591 18.0591 19.7266 14.1562 19.7266ZM9.84375 5.35156C6.53031 5.35156 5.35156 6.53031 5.35156 9.84375V14.1562C5.35156 17.4697 6.53031 18.6484 9.84375 18.6484H14.1562C17.4697 18.6484 18.6484 17.4697 18.6484 14.1562V9.84375C18.6484 6.53031 17.4697 5.35156 14.1562 5.35156H9.84375Z" fill="#A8ACB7"/>
<path d="M9.61375 14.3934C9.31188 14.3934 9.03156 14.3216 8.78719 14.185C8.19063 13.8472 7.86719 13.1788 7.86719 12.3019V5.12875C7.86719 4.83407 8.11156 4.58969 8.40625 4.58969C8.70094 4.58969 8.94531 4.83407 8.94531 5.12875V12.3019C8.94531 12.7691 9.08188 13.1141 9.31906 13.2434C9.57063 13.3872 9.95875 13.3153 10.3828 13.0638L11.3316 12.4959C11.7197 12.2659 12.2731 12.2659 12.6613 12.4959L13.61 13.0638C14.0412 13.3225 14.4294 13.3872 14.6738 13.2434C14.9109 13.1069 15.0475 12.7619 15.0475 12.3019V5.12875C15.0475 4.83407 15.2919 4.58969 15.5866 4.58969C15.8812 4.58969 16.1256 4.83407 16.1256 5.12875V12.3019C16.1256 13.1788 15.8022 13.8472 15.2056 14.185C14.6091 14.5228 13.8256 14.4509 13.0566 13.9909L12.1078 13.4231C12.0647 13.3944 11.9281 13.3944 11.885 13.4231L10.9363 13.9909C10.4906 14.2569 10.0306 14.3934 9.61375 14.3934Z" fill="#A8ACB7"/>
<path d="M14.1562 19.7266H9.84375C5.94094 19.7266 4.27344 18.0591 4.27344 14.1562V9.84375C4.27344 5.94094 5.94094 4.27344 9.84375 4.27344H14.1562C18.0591 4.27344 19.7266 5.94094 19.7266 9.84375V14.1562C19.7266 18.0591 18.0591 19.7266 14.1562 19.7266ZM9.84375 5.35156C6.53031 5.35156 5.35156 6.53031 5.35156 9.84375V14.1562C5.35156 17.4697 6.53031 18.6484 9.84375 18.6484H14.1562C17.4697 18.6484 18.6484 17.4697 18.6484 14.1562V9.84375C18.6484 6.53031 17.4697 5.35156 14.1562 5.35156H9.84375Z" fill="#A8ACB7"/>
<path d="M9.61375 14.3934C9.31188 14.3934 9.03156 14.3216 8.78719 14.185C8.19063 13.8472 7.86719 13.1788 7.86719 12.3019V5.12875C7.86719 4.83407 8.11156 4.58969 8.40625 4.58969C8.70094 4.58969 8.94531 4.83407 8.94531 5.12875V12.3019C8.94531 12.7691 9.08188 13.1141 9.31906 13.2434C9.57063 13.3872 9.95875 13.3153 10.3828 13.0638L11.3316 12.4959C11.7197 12.2659 12.2731 12.2659 12.6613 12.4959L13.61 13.0638C14.0412 13.3225 14.4294 13.3872 14.6738 13.2434C14.9109 13.1069 15.0475 12.7619 15.0475 12.3019V5.12875C15.0475 4.83407 15.2919 4.58969 15.5866 4.58969C15.8812 4.58969 16.1256 4.83407 16.1256 5.12875V12.3019C16.1256 13.1788 15.8022 13.8472 15.2056 14.185C14.6091 14.5228 13.8256 14.4509 13.0566 13.9909L12.1078 13.4231C12.0647 13.3944 11.9281 13.3944 11.885 13.4231L10.9363 13.9909C10.4906 14.2569 10.0306 14.3934 9.61375 14.3934Z" fill="#A8ACB7"/>
</svg>
