<svg width="24" height="24" viewBox="0 0 24 24" fill="none" xmlns="http://www.w3.org/2000/svg">
<path d="M15.8864 19.2786H8.11352C6.42758 19.2786 5.05988 17.9109 5.05988 16.225V11.6682C5.05988 9.9823 6.42758 8.61459 8.11352 8.61459H15.8864C17.5724 8.61459 18.9401 9.9823 18.9401 11.6682V12.6432C18.9401 12.9208 18.7099 13.1511 18.4323 13.1511H17.0646C16.8276 13.1511 16.6109 13.2391 16.4552 13.4016L16.4484 13.4083C16.2588 13.5912 16.1708 13.8417 16.1911 14.0989C16.2318 14.5458 16.6583 14.9047 17.1458 14.9047H18.4323C18.7099 14.9047 18.9401 15.1349 18.9401 15.4125V16.2182C18.9401 17.9109 17.5724 19.2786 15.8864 19.2786ZM8.11352 9.63021C6.98956 9.63021 6.0755 10.5443 6.0755 11.6682V16.225C6.0755 17.349 6.98956 18.263 8.11352 18.263H15.8864C17.0104 18.263 17.9245 17.349 17.9245 16.225V15.9271H17.1458C16.1234 15.9271 15.2568 15.1687 15.1755 14.1937C15.1213 13.6385 15.3245 13.0901 15.7307 12.6906C16.0828 12.3318 16.5568 12.1354 17.0646 12.1354H17.9245V11.6682C17.9245 10.5443 17.0104 9.63021 15.8864 9.63021H8.11352Z" fill="#A8ACB7"/>
<path d="M5.56769 12.7854C5.29008 12.7854 5.05988 12.5552 5.05988 12.2776V9.18337C5.05988 8.17452 5.69633 7.26042 6.63748 6.90156L12.0135 4.87031C12.5687 4.66042 13.1849 4.73493 13.6656 5.07347C14.1531 5.41201 14.4375 5.96045 14.4375 6.54951V9.12242C14.4375 9.40002 14.2073 9.63023 13.9297 9.63023C13.6521 9.63023 13.4219 9.40002 13.4219 9.12242V6.54951C13.4219 6.29222 13.3 6.05523 13.0833 5.90627C12.8666 5.75731 12.6094 5.72345 12.3656 5.81825L6.98956 7.8495C6.44113 8.05939 6.06873 8.59431 6.06873 9.18337V12.2776C6.0755 12.562 5.84529 12.7854 5.56769 12.7854Z" fill="#A8ACB7"/>
<path d="M17.1458 15.927C16.1234 15.927 15.2567 15.1687 15.1755 14.1937C15.1213 13.6317 15.3244 13.0833 15.7307 12.6838C16.076 12.3317 16.55 12.1354 17.0578 12.1354H18.4661C19.1364 12.1557 19.651 12.6838 19.651 13.3338V14.7286C19.651 15.3786 19.1364 15.9067 18.4864 15.927H17.1458ZM18.4526 13.151H17.0645C16.8276 13.151 16.6109 13.239 16.4552 13.4015C16.2588 13.5911 16.164 13.8484 16.1911 14.1057C16.2317 14.5526 16.6583 14.9114 17.1458 14.9114H18.4729C18.5609 14.9114 18.6422 14.8302 18.6422 14.7286V13.3338C18.6422 13.2322 18.5609 13.1578 18.4526 13.151Z" fill="#A8ACB7"/>
<path d="M13.3541 12.5078H8.61456C8.33696 12.5078 8.10675 12.2776 8.10675 12C8.10675 11.7224 8.33696 11.4922 8.61456 11.4922H13.3541C13.6318 11.4922 13.862 11.7224 13.862 12C13.862 12.2776 13.6318 12.5078 13.3541 12.5078Z" fill="#A8ACB7"/>
</svg>
