<svg width="16" height="16" viewBox="0 0 16 16" fill="none" xmlns="http://www.w3.org/2000/svg">
<path d="M14 5.16666H2C1.72667 5.16666 1.5 4.94 1.5 4.66666C1.5 4.39333 1.72667 4.16666 2 4.16666H14C14.2733 4.16666 14.5 4.39333 14.5 4.66666C14.5 4.94 14.2733 5.16666 14 5.16666Z" fill="#A8ACB7"/>
<path d="M14 8.5H2C1.72667 8.5 1.5 8.27333 1.5 8C1.5 7.72667 1.72667 7.5 2 7.5H14C14.2733 7.5 14.5 7.72667 14.5 8C14.5 8.27333 14.2733 8.5 14 8.5Z" fill="#A8ACB7"/>
<path d="M14 11.8333H2C1.72667 11.8333 1.5 11.6067 1.5 11.3333C1.5 11.06 1.72667 10.8333 2 10.8333H14C14.2733 10.8333 14.5 11.06 14.5 11.3333C14.5 11.6067 14.2733 11.8333 14 11.8333Z" fill="#A8ACB7"/>
</svg>
