<svg width="24" height="24" viewBox="0 0 24 24" fill="none" xmlns="http://www.w3.org/2000/svg">
<path d="M12 19.8823C11.4969 19.8823 11.0229 19.6271 10.6875 19.1823L9.59376 17.724C9.57188 17.6948 9.48439 17.6583 9.44793 17.651H9.08334C6.04272 17.651 4.16147 16.8271 4.16147 12.7292V9.08334C4.16147 5.86042 5.86043 4.16146 9.08334 4.16146H14.9167C18.1396 4.16146 19.8386 5.86042 19.8386 9.08334V12.7292C19.8386 15.9521 18.1396 17.651 14.9167 17.651H14.5521C14.4938 17.651 14.4427 17.6802 14.4063 17.724L13.3125 19.1823C12.9771 19.6271 12.5031 19.8823 12 19.8823ZM9.08334 5.25521C6.47293 5.25521 5.25522 6.47292 5.25522 9.08334V12.7292C5.25522 16.025 6.38543 16.5573 9.08334 16.5573H9.44793C9.8198 16.5573 10.2427 16.7688 10.4688 17.0677L11.5625 18.526C11.8177 18.8615 12.1823 18.8615 12.4375 18.526L13.5313 17.0677C13.7719 16.7469 14.1511 16.5573 14.5521 16.5573H14.9167C17.5271 16.5573 18.7448 15.3396 18.7448 12.7292V9.08334C18.7448 6.47292 17.5271 5.25521 14.9167 5.25521H9.08334Z" fill="#A8ACB7"/>
<path d="M15.6459 9.63021H8.35422C8.05526 9.63021 7.80734 9.38229 7.80734 9.08334C7.80734 8.78438 8.05526 8.53646 8.35422 8.53646H15.6459C15.9448 8.53646 16.1928 8.78438 16.1928 9.08334C16.1928 9.38229 15.9448 9.63021 15.6459 9.63021Z" fill="#A8ACB7"/>
<path d="M12.7292 13.276H8.35422C8.05526 13.276 7.80734 13.0281 7.80734 12.7292C7.80734 12.4302 8.05526 12.1823 8.35422 12.1823H12.7292C13.0282 12.1823 13.2761 12.4302 13.2761 12.7292C13.2761 13.0281 13.0282 13.276 12.7292 13.276Z" fill="#A8ACB7"/>
</svg>
