<svg width="24" height="24" viewBox="0 0 24 24" fill="none" xmlns="http://www.w3.org/2000/svg">
<path d="M16.4373 8.97512C16.4152 8.97512 16.4004 8.97512 16.3782 8.97512H16.3412C14.9434 8.93075 13.9006 7.85095 13.9006 6.5197C13.9006 5.15887 15.01 4.05688 16.3634 4.05688C17.7168 4.05688 18.8262 5.16626 18.8262 6.5197C18.8188 7.85834 17.776 8.93814 16.4447 8.98251C16.4447 8.97512 16.4447 8.97512 16.4373 8.97512ZM16.3634 5.15887C15.6164 5.15887 15.0099 5.76533 15.0099 6.51231C15.0099 7.24449 15.5794 7.83616 16.3116 7.86575C16.319 7.85835 16.3782 7.85835 16.4447 7.86575C17.1621 7.82877 17.7168 7.2371 17.7242 6.51231C17.7242 5.76533 17.1178 5.15887 16.3634 5.15887Z" fill="#A8ACB7"/>
<path d="M16.4449 14.4259C16.1565 14.4259 15.868 14.4037 15.5796 14.3519C15.2764 14.3001 15.0767 14.0117 15.1284 13.7085C15.1802 13.4052 15.4686 13.2055 15.7719 13.2573C16.6816 13.4126 17.643 13.2425 18.2865 12.8136C18.6341 12.5843 18.819 12.2959 18.819 12.0074C18.819 11.719 18.6267 11.4379 18.2865 11.2087C17.643 10.7797 16.6668 10.6096 15.7497 10.7723C15.4465 10.8315 15.158 10.6244 15.1062 10.3212C15.0545 10.0179 15.2542 9.7295 15.5574 9.67773C16.7629 9.46325 18.0128 9.69252 18.9003 10.2842C19.5511 10.7205 19.9283 11.3418 19.9283 12.0074C19.9283 12.6656 19.5585 13.2943 18.9003 13.738C18.2273 14.1818 17.3546 14.4259 16.4449 14.4259Z" fill="#A8ACB7"/>
<path d="M7.54029 8.9751C7.5329 8.9751 7.5255 8.9751 7.5255 8.9751C6.19425 8.93073 5.15144 7.85093 5.14404 6.51968C5.14404 5.15885 6.25342 4.04948 7.60686 4.04948C8.96029 4.04948 10.0697 5.15885 10.0697 6.51229C10.0697 7.85094 9.02686 8.93073 7.69561 8.9751L7.54029 8.42042L7.59206 8.9751C7.57727 8.9751 7.55509 8.9751 7.54029 8.9751ZM7.61425 7.86573C7.65863 7.86573 7.69561 7.86573 7.73998 7.87312C8.39821 7.84354 8.97508 7.25187 8.97508 6.51968C8.97508 5.7727 8.36863 5.16624 7.62165 5.16624C6.87467 5.16624 6.26821 5.7727 6.26821 6.51968C6.26821 7.24447 6.83029 7.82875 7.54769 7.87312C7.55508 7.86573 7.58467 7.86573 7.61425 7.86573Z" fill="#A8ACB7"/>
<path d="M7.53294 14.4259C6.62325 14.4259 5.75054 14.1818 5.07752 13.738C4.42669 13.3017 4.0495 12.673 4.0495 12.0074C4.0495 11.3492 4.42669 10.7205 5.07752 10.2842C5.96502 9.69252 7.21492 9.46325 8.42044 9.67773C8.72367 9.7295 8.92335 10.0179 8.87158 10.3212C8.81981 10.6244 8.53138 10.8315 8.22815 10.7723C7.31106 10.6096 6.34221 10.7797 5.69138 11.2087C5.34377 11.4379 5.15887 11.719 5.15887 12.0074C5.15887 12.2959 5.35117 12.5843 5.69138 12.8136C6.33481 13.2425 7.29627 13.4126 8.20596 13.2573C8.50919 13.2055 8.79763 13.4126 8.8494 13.7085C8.90117 14.0117 8.70148 14.3001 8.39825 14.3519C8.10981 14.4037 7.82137 14.4259 7.53294 14.4259Z" fill="#A8ACB7"/>
<path d="M11.9998 14.4998C11.9777 14.4998 11.9629 14.4998 11.9407 14.4998H11.9037C10.5059 14.4554 9.46307 13.3756 9.46307 12.0444C9.46307 10.6835 10.5725 9.58155 11.9259 9.58155C13.2793 9.58155 14.3887 10.6909 14.3887 12.0444C14.3813 13.383 13.3385 14.4628 12.0072 14.5072C12.0072 14.4998 12.0072 14.4998 11.9998 14.4998ZM11.9259 10.6835C11.1789 10.6835 10.5724 11.29 10.5724 12.037C10.5724 12.7692 11.1419 13.3608 11.8741 13.3904C11.8815 13.383 11.9407 13.383 12.0072 13.3904C12.7246 13.3534 13.2793 12.7618 13.2867 12.037C13.2867 11.2974 12.6803 10.6835 11.9259 10.6835Z" fill="#A8ACB7"/>
<path d="M11.9999 19.9579C11.1124 19.9579 10.2249 19.7286 9.53705 19.2627C8.88622 18.8263 8.50903 18.2051 8.50903 17.5395C8.50903 16.8812 8.87882 16.2452 9.53705 15.8088C10.9201 14.8917 13.0871 14.8917 14.4627 15.8088C15.1135 16.2452 15.4907 16.8664 15.4907 17.5321C15.4907 18.1903 15.1209 18.8263 14.4627 19.2627C13.7749 19.7212 12.8874 19.9579 11.9999 19.9579ZM10.1509 16.7407C9.8033 16.97 9.61841 17.2584 9.61841 17.5469C9.61841 17.8353 9.8107 18.1163 10.1509 18.3456C11.1493 19.0186 12.843 19.0186 13.8414 18.3456C14.189 18.1163 14.3739 17.8279 14.3739 17.5395C14.3739 17.251 14.1816 16.97 13.8414 16.7407C12.8504 16.0677 11.1567 16.0751 10.1509 16.7407Z" fill="#A8ACB7"/>
</svg>
