<svg width="16" height="16" viewBox="0 0 16 16" fill="none" xmlns="http://www.w3.org/2000/svg">
<path d="M10.6666 8.5H5.33331C5.05998 8.5 4.83331 8.27333 4.83331 8C4.83331 7.72667 5.05998 7.5 5.33331 7.5H10.6666C10.94 7.5 11.1666 7.72667 11.1666 8C11.1666 8.27333 10.94 8.5 10.6666 8.5Z" fill="#A8ACB7"/>
<path d="M8 11.1667C7.72667 11.1667 7.5 10.94 7.5 10.6667V5.33334C7.5 5.06 7.72667 4.83334 8 4.83334C8.27333 4.83334 8.5 5.06 8.5 5.33334V10.6667C8.5 10.94 8.27333 11.1667 8 11.1667Z" fill="#A8ACB7"/>
<path d="M9.99998 15.1667H5.99998C2.37998 15.1667 0.833313 13.62 0.833313 10V6C0.833313 2.38 2.37998 0.833336 5.99998 0.833336H9.99998C13.62 0.833336 15.1666 2.38 15.1666 6V10C15.1666 13.62 13.62 15.1667 9.99998 15.1667ZM5.99998 1.83334C2.92665 1.83334 1.83331 2.92667 1.83331 6V10C1.83331 13.0733 2.92665 14.1667 5.99998 14.1667H9.99998C13.0733 14.1667 14.1666 13.0733 14.1666 10V6C14.1666 2.92667 13.0733 1.83334 9.99998 1.83334H5.99998Z" fill="#A8ACB7"/>
</svg>
