<svg width="24" height="24" viewBox="0 0 24 24" fill="none" xmlns="http://www.w3.org/2000/svg">
<path d="M14.2333 17.7792C14.36 17.7792 14.4867 17.7325 14.5867 17.6325C14.78 17.4392 14.78 17.1192 14.5867 16.9258L10.24 12.5792C9.91999 12.2592 9.91999 11.7392 10.24 11.4192L14.5867 7.0725C14.78 6.87917 14.78 6.55917 14.5867 6.36583C14.3933 6.1725 14.0733 6.1725 13.88 6.36583L9.53333 10.7125C9.19333 11.0525 8.99999 11.5125 8.99999 11.9992C8.99999 12.4858 9.18666 12.9458 9.53333 13.2858L13.88 17.6325C13.98 17.7258 14.1067 17.7792 14.2333 17.7792Z" fill="#A8ACB7"/>
</svg>
