<svg width="18" height="18" viewBox="0 0 18 18" fill="none" xmlns="http://www.w3.org/2000/svg">
<path d="M7.08382 11.424C6.95517 11.424 6.82653 11.3766 6.72496 11.275C6.52861 11.0786 6.52861 10.7536 6.72496 10.5573L10.5573 6.725C10.7536 6.52865 11.0786 6.52865 11.275 6.725C11.4713 6.92136 11.4713 7.24636 11.275 7.44271L7.44267 11.275C7.34788 11.3766 7.21246 11.424 7.08382 11.424Z" fill="#A8ACB7"/>
<path d="M10.9161 11.424C10.7875 11.424 10.6588 11.3766 10.5573 11.275L6.72496 7.44271C6.52861 7.24636 6.52861 6.92136 6.72496 6.725C6.92132 6.52865 7.24632 6.52865 7.44267 6.725L11.275 10.5573C11.4713 10.7536 11.4713 11.0786 11.275 11.275C11.1734 11.3766 11.0448 11.424 10.9161 11.424Z" fill="#A8ACB7"/>
<path d="M11.0313 16.2786H6.96877C3.29221 16.2786 1.72137 14.7078 1.72137 11.0312V6.96875C1.72137 3.29219 3.29221 1.72135 6.96877 1.72135H11.0313C14.7078 1.72135 16.2787 3.29219 16.2787 6.96875V11.0312C16.2787 14.7078 14.7078 16.2786 11.0313 16.2786ZM6.96877 2.73698C3.84742 2.73698 2.737 3.84739 2.737 6.96875V11.0312C2.737 14.1526 3.84742 15.263 6.96877 15.263H11.0313C14.1526 15.263 15.263 14.1526 15.263 11.0312V6.96875C15.263 3.84739 14.1526 2.73698 11.0313 2.73698H6.96877Z" fill="#A8ACB7"/>
</svg>
