<svg width="24" height="24" viewBox="0 0 24 24" fill="none" xmlns="http://www.w3.org/2000/svg">
<path d="M13.48 18.42C12.6933 18.42 11.58 17.8667 10.7 15.22L10.22 13.78L8.78 13.3C6.14 12.42 5.58667 11.3067 5.58667 10.52C5.58667 9.74 6.14 8.62 8.78 7.73334L14.44 5.84667C15.8533 5.37334 17.0333 5.51333 17.76 6.23333C18.4867 6.95334 18.6267 8.14 18.1533 9.55333L16.2667 15.2133C15.38 17.8667 14.2667 18.42 13.48 18.42ZM9.09334 8.68667C7.24 9.30667 6.58 10.04 6.58 10.52C6.58 11 7.24 11.7333 9.09334 12.3467L10.7733 12.9067C10.92 12.9533 11.04 13.0733 11.0867 13.22L11.6467 14.9C12.26 16.7533 13 17.4133 13.48 17.4133C13.96 17.4133 14.6933 16.7533 15.3133 14.9L17.2 9.24C17.54 8.21334 17.48 7.37334 17.0467 6.94C16.6133 6.50667 15.7733 6.45334 14.7533 6.79334L9.09334 8.68667Z" fill="#A8ACB7"/>
<path d="M10.74 13.6C10.6133 13.6 10.4867 13.5533 10.3867 13.4533C10.1933 13.26 10.1933 12.94 10.3867 12.7467L12.7733 10.3533C12.9667 10.16 13.2867 10.16 13.48 10.3533C13.6733 10.5467 13.6733 10.8667 13.48 11.06L11.0933 13.4533C11 13.5533 10.8667 13.6 10.74 13.6Z" fill="#A8ACB7"/>
</svg>
