<svg width="18" height="18" viewBox="0 0 18 18" fill="none" xmlns="http://www.w3.org/2000/svg">
<path d="M11.0313 16.2786H6.96877C3.29221 16.2786 1.72137 14.7078 1.72137 11.0312V6.96875C1.72137 3.29219 3.29221 1.72135 6.96877 1.72135H11.0313C14.7078 1.72135 16.2787 3.29219 16.2787 6.96875V11.0312C16.2787 14.7078 14.7078 16.2786 11.0313 16.2786ZM6.96877 2.73698C3.84742 2.73698 2.737 3.84739 2.737 6.96875V11.0312C2.737 14.1526 3.84742 15.263 6.96877 15.263H11.0313C14.1526 15.263 15.263 14.1526 15.263 11.0312V6.96875C15.263 3.84739 14.1526 2.73698 11.0313 2.73698H6.96877Z" fill="#A8ACB7"/>
<path d="M8.03854 11.424C7.90312 11.424 7.77448 11.3698 7.67968 11.275L5.76354 9.35886C5.56718 9.16251 5.56718 8.83751 5.76354 8.64115C5.95989 8.4448 6.28489 8.4448 6.48125 8.64115L8.03854 10.1984L11.5187 6.71823C11.7151 6.52188 12.0401 6.52188 12.2365 6.71823C12.4328 6.91459 12.4328 7.23959 12.2365 7.43594L8.39739 11.275C8.3026 11.3698 8.17395 11.424 8.03854 11.424Z" fill="#A8ACB7"/>
</svg>
